<svg xmlns="http://www.w3.org/2000/svg" viewBox="0 0 1166.44 550.42"><defs><style>.cls-1{isolation:isolate;}.cls-2{fill:#ccebff;}.cls-3{fill:#a0a2b3;}.cls-4{fill:#dbe1ff;}.cls-5{fill:#c2ccff;}.cls-20,.cls-6{fill:#fff;}.cls-7{fill:#29abe2;}.cls-8{fill:#bfe6ff;}.cls-9{fill:#a8c681;}.cls-10{fill:#121841;}.cls-11{fill:#fbb03b;}.cls-12{fill:#f7931e;}.cls-13{fill:#1e0c00;}.cls-14{fill:#00485c;}.cls-15{fill:#5279e0;}.cls-16{fill:#1c0f00;}.cls-17{fill:#887ea8;}.cls-18{fill:#30273f;}.cls-19{fill:#40375b;}.cls-20{opacity:0.31;}.cls-21{fill:#302944;}.cls-22{fill:#d1c7e5;}.cls-23{fill:#eac733;}.cls-24{fill:#00c9f7;}.cls-25{fill:#dad2e0;}.cls-26{fill:#0089a9;}.cls-27{fill:#66a1ad;}.cls-28{fill:#c16400;}.cls-29{fill:#26151a;}.cls-30{fill:#564779;}.cls-31{fill:#41355b;}.cls-32{fill:#598891;}.cls-33{fill:#bdcfd3;}.cls-34{fill:#43666d;opacity:0.34;}.cls-35{fill:#245058;}.cls-36{fill:#1b3c42;}.cls-37{fill:#e0e3f1;}.cls-38{fill:#858aa4;opacity:0.44;}.cls-39{fill:#77a1a8;}.cls-40{fill:#e0c57d;}.cls-41{fill:#f3e8cb;}.cls-42{fill:#f15a24;}.cls-43{fill:#debdb5;}.cls-44{fill:#3d2e5f;}.cls-45{fill:#2e2347;}.cls-46{fill:#372c52;}.cls-47{fill:#fc7575;}.cls-48{fill:#8ab3bc;}.cls-49{fill:#fd5e5a;}.cls-50{fill:#1a1722;}.cls-51{fill:#332f44;}.cls-52{fill:#ff4747;}.cls-53{fill:#cef2fa;}.cls-54{fill:#7f71a4;}.cls-55{fill:#005569;}.cls-56{fill:#000086;}.cls-57{fill:#000065;}.cls-58{fill:#4f005e;}.cls-59{fill:#42004a;}.cls-60{fill:#0000bf;}.cls-61{fill:blue;}.cls-62{fill:#70c3f8;}.cls-63{fill:#513d7e;}.cls-64{fill:#ac95e0;}.cls-65{fill:#3a0049;}.cls-66{fill:#001542;}.cls-67{fill:#904;}.cls-68{fill:#ffba00;}.cls-69{fill:#fff7cf;}.cls-70{fill:#2e0a29;}.cls-71{fill:#450f3d;}.cls-72{fill:#340b2e;}.cls-73{fill:#5c1451;}.cls-74{fill:#170053;}.cls-75{fill:#2d1175;}.cls-76{fill:#ffcb57;}.cls-77{fill:red;}.cls-78{fill:#586086;}.cls-79,.cls-82{fill:#c61937;}.cls-80{fill:#ff1900;}.cls-81{fill:#ff1d3b;}.cls-82{opacity:0.78;}.cls-82,.cls-97{mix-blend-mode:multiply;}.cls-83{fill:#4b314c;}.cls-84{fill:#745075;}.cls-85{fill:#ffce00;}.cls-86{fill:#3c233d;}.cls-87{fill:#ffd15f;}.cls-88{fill:#ff875f;}.cls-89{fill:#fff983;}.cls-90{fill:#ffa18b;opacity:0.24;mix-blend-mode:screen;}.cls-91{fill:#ff751d;}.cls-92{fill:#ff951d;}.cls-93{fill:#ffbd1d;}.cls-94{fill:#cc3403;}.cls-95{fill:#ff1932;}.cls-96{fill:#d81809;}.cls-97{fill:#ff891d;opacity:0.33;}.cls-98{fill:#ff4304;}</style></defs><title>Asset 1</title><g class="cls-1"><g id="Layer_2" data-name="Layer 2"><g id="_Layer_" data-name="&lt;Layer&gt;"><path class="cls-2" d="M965.63,101.4s-223.53.71-415.88-9.91S90.67,97.68,106.48,129.76,208.33,127,334.67,232.7s666.15,180.41,702.8,141.67S884.07,339,894.88,254.15,1051.85,136.74,965.63,101.4Z"/><rect class="cls-3" x="223.45" y="25.39" width="645.32" height="437.47" rx="32.39"/><rect class="cls-4" x="342.65" y="-64.05" width="406.92" height="616.35" rx="17.52" transform="translate(790.24 -301.98) rotate(90)"/><path class="cls-5" d="M837.23,40.67H255c-9.41,0-17.07,8.06-17.07,18V99.6H854.29V58.66C854.29,48.73,846.63,40.67,837.23,40.67Z"/><rect class="cls-6" x="264.41" y="51.67" width="508.38" height="29.2" rx="14.22"/><rect class="cls-7" x="788.37" y="53.79" width="49.24" height="24.96" rx="12.15"/><rect class="cls-6" x="276.26" y="129.76" width="536.73" height="269.99" rx="25.3"/><path class="cls-5" d="M788.36,129.76H300.9c-13.61,0-24.64,11.63-24.64,26v10.45H813V155.74C813,141.39,802,129.76,788.36,129.76Z"/><rect class="cls-6" x="668.61" y="136.84" width="25.99" height="20.62"/><path class="cls-6" d="M730.14,140.56h-27a1.53,1.53,0,0,1,0-3.05h27a1.53,1.53,0,0,1,0,3.05Z"/><path class="cls-6" d="M730.14,149.15h-27a1.53,1.53,0,0,1,0-3.05h27a1.53,1.53,0,0,1,0,3.05Z"/><path class="cls-6" d="M730.14,157.74h-27a1.53,1.53,0,0,1,0-3.05h27a1.53,1.53,0,0,1,0,3.05Z"/><rect class="cls-8" x="346.23" y="187.56" width="105.81" height="99.08"/><rect class="cls-8" x="497.85" y="187.56" width="105.8" height="99.08"/><rect class="cls-8" x="649.47" y="187.56" width="105.8" height="99.08"/><rect class="cls-9" x="512.8" y="335.49" width="109.75" height="22.02" rx="9.31"/><path class="cls-10" d="M758.16,73.84l-3.55-6.12a6.44,6.44,0,0,0,2.37-5A6,6,0,1,0,751,69a5.86,5.86,0,0,0,2.33-.49l2.51,6.56a1.86,1.86,0,0,0,.1.2,1.29,1.29,0,0,0,1.82.47A1.45,1.45,0,0,0,758.16,73.84ZM746.39,62.68A4.58,4.58,0,1,1,751,67.5,4.71,4.71,0,0,1,746.39,62.68Z"/><rect class="cls-5" y="87.15" width="166.64" height="100.71" rx="6.39"/><rect class="cls-3" y="139.99" width="166.64" height="28.77"/><rect class="cls-11" x="122.29" y="146.38" width="33.09" height="15.45"/><rect class="cls-6" x="24.25" y="97.85" width="120.79" height="6.35"/><rect class="cls-4" x="974.84" y="287.47" width="191.6" height="146.82" rx="29.26"/><path class="cls-12" d="M878.64,522.59c0,8.76-161.77,15.86-361.32,15.86S156,531.35,156,522.59s161.77-15.85,361.32-15.85S878.64,513.84,878.64,522.59Z"/><polygon class="cls-13" points="321.31 515.73 325.52 515.73 325.52 430.86 318.04 430.86 321.31 515.73"/><path class="cls-14" d="M265.9,452.86l49.66-11.7a7.81,7.81,0,0,0,6.22-7.72l-.33-9c-.32-8.63-8.94-14.6-17.81-12.33l-49,12.59Z"/><path class="cls-15" d="M298.72,392.76h.08S298.78,392.77,298.72,392.76Z"/><path class="cls-16" d="M495.35,525.79H477a2.23,2.23,0,0,0-2.34-2.09h-14a4.47,4.47,0,0,0-4.69-4.18h-4.91c2.49-18.33,3.64-30.59,4.5-40.89.69-8.79,5.18-22.51-2.79-43.07,2.56-.37,9.52,1.4,9.52-3.09a2.82,2.82,0,0,0-.54-1.64h9.66c3.21,0,5.47-3.1,3.77-5.77H580c-1.47-1.31-10-18.71-32.67-18.71H350.07c-23.72,0-31.86,18.54-32,18.71H422.88c-1.7,2.68.57,5.77,3.78,5.77h9.65a2.82,2.82,0,0,0-.54,1.64c0,4.51,7,2.73,9.52,3.09-3.38,8.71-5.67,20.39-4.34,30.76,2.82,22.16,2.21,24.87,6.05,53.2h-4.91a4.47,4.47,0,0,0-4.69,4.18h-14a2.23,2.23,0,0,0-2.34,2.09H402.71a2.93,2.93,0,0,0-3,2.58h98.72A2.93,2.93,0,0,0,495.35,525.79Z"/><path class="cls-17" d="M318,425.06H580c-.47-.41-1.65-2.45-3.76-5h-255A31.63,31.63,0,0,0,318,425.06Z"/><path class="cls-18" d="M419.87,323c-6.32.33-9.73-1-13.11,1.79a5.85,5.85,0,0,0-2.07,2.48c-.38,1.73-7.1,71.44-7.1,71.44s.37,2,2.64,1.05S419.87,323,419.87,323Z"/><path class="cls-19" d="M402.13,400.27l46.61,5.81a4.06,4.06,0,0,0,4.59-2.76l2.15-9.64,3.62-16.27,1.21-5.44,3.61-16.26,1.5-6.74L469,332.71l1.24-5.62c.47-2.11-1.45-4.06-4-4.06H417.74c-4.93,0-9.09,3.11-9.67,7.24l-9.39,66.2C398.42,398.32,400,400,402.13,400.27Z"/><polygon class="cls-20" points="443.74 323.03 460.31 371.97 463.92 355.71 452.86 323.03 443.74 323.03"/><polygon class="cls-20" points="431.56 323.03 455.48 393.68 459.1 377.41 440.7 323.03 431.56 323.03"/><polygon class="cls-20" points="456.63 323.03 465.42 348.97 469.04 332.71 465.75 323.03 456.63 323.03"/><path class="cls-21" d="M353.43,406.64H454.34l0-9-91.62-.22a9.26,9.26,0,0,0-9.26,9.26Z"/><path class="cls-22" d="M451.09,352.29c0,1.83-5.94,3.32-13.27,3.32s-13.28-1.49-13.28-3.32,5.95-3.32,13.28-3.32S451.09,350.46,451.09,352.29Z"/><path class="cls-23" d="M501.74,363.5a2.39,2.39,0,0,0-2.38-2.25H484a2.38,2.38,0,0,0-2.38,2.25l0,.41h20.21Z"/><polygon class="cls-24" points="481.55 363.91 479.05 406.35 504.27 406.35 501.76 363.91 481.55 363.91"/><path class="cls-23" d="M492.86,354.33a.74.74,0,0,0-.74-.83h-.92a.74.74,0,0,0-.74.83v0h2.39Z"/><path class="cls-24" d="M503,393.61l-1.7-1c5.85-9.52,13.1-24.21,10.93-27-2.9-3.78-10.63,1.72-10.71,1.77l-1.18-1.6c.38-.28,9.35-6.75,13.47-1.39C517.58,369.26,505.44,389.59,503,393.61Z"/><polygon class="cls-25" points="490.46 354.37 491.02 358.87 492.3 358.87 492.85 354.37 490.46 354.37"/><path class="cls-26" d="M491.66,356.49c-4,0-7.3,2.12-7.39,4.76h14.78C499,358.61,495.69,356.49,491.66,356.49Z"/><polygon class="cls-27" points="481.07 372.11 480.42 383.17 473.24 367.04 477.04 367.04 481.07 372.11"/><path class="cls-24" d="M539.18,402.33c.59-.19,1.22-.37,1.84-.55,3.91-1.14,8.34-2.42,8.71-7.64a3.86,3.86,0,0,0-.67-2.71c-1.42-1.81-4.46-1.71-6.16-1.06l.53,1.41c1.26-.48,3.56-.55,4.44.58a2.41,2.41,0,0,1,.36,1.67c-.3,4.18-3.86,5.21-7.62,6.3-.65.19-1.29.37-1.9.57Z"/><path class="cls-26" d="M554.15,403.56v0c0,1-1.77,2-4.76,2.73H512.71c-3-.76-4.76-1.7-4.76-2.73,0,0,0,0,0,0Z"/><path class="cls-23" d="M522.47,388.43H543c.07.31.13.63.18.95H522.29Z"/><path class="cls-24" d="M543.16,389.38a20.37,20.37,0,0,1,.3,3.54,18.69,18.69,0,0,1-3.14,10.71H525.13A18.68,18.68,0,0,1,522,392.92a21.41,21.41,0,0,1,.29-3.54Z"/><path class="cls-28" d="M529,388.3c.66-.68,1.74-.14,2.19.13h-.9a1,1,0,0,0-1,.13c-.5.52-.85,3.82-1,5.91a.19.19,0,0,1-.18.18h0a.19.19,0,0,1-.18-.2C528,393.9,528.23,389.09,529,388.3Z"/><path class="cls-29" d="M525.57,400.3h5.09V396a1.52,1.52,0,0,1-1.51-1.51h-2.07a1.51,1.51,0,0,1-1.51,1.51Z"/><rect class="cls-28" x="526.53" y="396.38" width="3.06" height="3.06" transform="translate(1056.12 795.81) rotate(180)"/><path class="cls-30" d="M769.06,159.49a3.27,3.27,0,1,0,3.27-3.45A3.36,3.36,0,0,0,769.06,159.49Z"/><path class="cls-31" d="M770.56,159.49a1.77,1.77,0,1,0,1.77-1.86A1.82,1.82,0,0,0,770.56,159.49Z"/><ellipse class="cls-30" cx="758.1" cy="159.49" rx="3.27" ry="3.45"/><path class="cls-31" d="M756.33,159.49a1.77,1.77,0,1,0,1.77-1.86A1.83,1.83,0,0,0,756.33,159.49Z"/><path class="cls-30" d="M756.07,150.36,750,139.24a1.58,1.58,0,0,1,.07-1.66,1.85,1.85,0,0,1,1.56-.81h24.25a.57.57,0,1,1,0,1.14H751.6a.6.6,0,0,0-.51.27.51.51,0,0,0,0,.54l6.1,11.12a.62.62,0,0,0,.54.31h15.86l4-14.87a3.92,3.92,0,0,1,3.72-3h4.48a.65.65,0,0,1,0,1.3h-4.48a2.68,2.68,0,0,0-2.54,2l-5.25,19.45H756.3a.65.65,0,0,1,0-1.3h16.29l.67-2.5H757.71A1.84,1.84,0,0,1,756.07,150.36Z"/><path class="cls-32" d="M750.06,445.57l-18.19-16.28c-7.85-24.73-11.76-52.41-5.69-79.65A228.7,228.7,0,0,1,767.8,362.7l9.8,20.44,4.67-13.44c10.25,5.64,19.86,12.6,26.72,21l-5.55,27.84,13.18-14.93a40.06,40.06,0,0,1,2.27,8.62c6.73,46.12,5.75,103.29,5.75,103.29H778.33a293.7,293.7,0,0,1-38.05-63.87Z"/><path class="cls-33" d="M777.09,496.4c11.23,5.55,19.25,5.59,22.14,5.36-14.4-18.74-26.88-42.49-36.55-63.89-.69,0-1.38.05-2,.05-12.63,0-22.51-5.32-29.54-11.13-.26-.86-.51-1.72-.76-2.59,7.12,6.39,17.75,12.68,31.71,12.24-2.82-6.28-5.49-12.56-8.07-18.9-10.59-1.37-21-7.78-28.31-13.27-.13-.72-.25-1.44-.37-2.17,7,5.44,17.53,12.24,28.05,13.87-13.05-32.36-21.25-58.52-21.33-58.81l-2.61-5.87,3.68,4.08c.14.51,6.89,21.7,17.13,48.48,5.45-11.51,2.49-39.63,1.57-47.22l1.54.52c1.08,8.92,3.93,37.56-2.41,48.51a549.09,549.09,0,0,0,24.3,54.62c3.89-5.86-2.58-43.79,8.26-58.75,6.61-9.14,7.49-19.76,7.14-26.83.5.33,1,.66,1.49,1,.22,7.28-.93,17.67-7.45,26.68-10.91,15.07-3.42,54.2-8.72,59.29q2.82,5.38,5.78,10.62c10.88-34.11,10.74-35.32,9.25-48.84-.85-7.78-1.66-15.12,3.55-20.31,4.52-4.5,6-13.42,6.43-20.66l1.42,1.27c-.53,7.24-2.19,15.82-6.82,20.42-8.29,8.26.33,23-3.4,37.65-3.38,13.26-8.58,29.52-9.44,32.19,4.07,7.07,8.33,13.87,12.78,20.2,1.84-1.55,9.55-9.08,7.35-24.92-1.77-12.86,10.29-29.24,18.32-38.52l.21,2.07c-7.83,9.28-18.69,24.56-17.08,36.25,2.34,16.91-6,24.73-7.95,26.32a153.88,153.88,0,0,0,16.88,20.15h-2.06c-1-1-2-2.12-3.07-3.22-5.71,1.79-14.57.84-23.36-5.66a20.84,20.84,0,0,0-15.79-3.79l-.92-1.32a22.4,22.4,0,0,1,17.58,3.94c10,7.39,18.51,6.3,21.38,5.62q-3.4-3.81-6.69-8c-7.35,1.08-17-2-23.84-5.41a31,31,0,0,0-13.07-3.11l-.94-1.46A32.77,32.77,0,0,1,777.09,496.4Z"/><path class="cls-34" d="M811,410l5.59-6.33a40.06,40.06,0,0,1,2.27,8.62c6.73,46.12,5.75,103.29,5.75,103.29S806.54,473.66,811,410Z"/><path class="cls-35" d="M976.73,479.27c-2,0-26.81-12.63-69.22,0a252.06,252.06,0,0,0-73.34,36.29s48.48,9.34,92.84,2.06S976.73,479.27,976.73,479.27Z"/><path class="cls-36" d="M839.23,512.11c27.84-19.09,70.48-39,106.37-38.44-7.54,21.22-17.68,36.67-37.87,46.16-30.48,2.12-59.39-1.73-69.7-3.34C838.38,515.13,838.77,513.66,839.23,512.11Z"/><path class="cls-35" d="M838.13,330.53l18.2,19.11-7.18-39.91a199,199,0,0,1,21.92-30.49c21.94-24.76,61.42-61.53,61.42-61.53a237.07,237.07,0,0,1,19.3,53.84l-20.4,20.8L955,290c17.5,134.19-105.17,225.56-105.17,225.56H824.64s-11.33-109.24-2.19-142.74A261.53,261.53,0,0,1,838.13,330.53Z"/><path class="cls-37" d="M820.28,385.05c.25-2.18.53-4.23.86-6.14,5.31,14.6,19.39,49.74,34.68,58.95q.78-2.19,1.6-4.39c-15.23-5.62-27.54-43.29-33.58-65.54q.78-2.62,1.62-5.26c6.33,24.37,19.13,63.15,33,68.09a201.41,201.41,0,0,1,15.39-32.11c4.86-8,9.82-18.94,14.69-31.56-13.15-10-23.21-52.55-27.7-75.12.76-1,1.53-2.05,2.3-3.06,4.1,21,14.28,64.85,26.49,75.33,3.51-9.29,7-19.39,10.29-29.78-11.17-16.69-14.87-52-16-69l2.76-2.87c.93,14.81,4.18,50.56,14.43,68.25,16.4-52.08,30.13-109.42,30.32-110.3l1.1-2v2.19c-.22,1-15.48,73.6-34.75,129.62,21.73,7.22,45.55-8,58.41-18.4-.1,1.36-.22,2.71-.36,4.06a125.3,125.3,0,0,1-11.18,7.72c-12.39,7.56-24.24,11.39-35,11.39a40.7,40.7,0,0,1-12.84-2C891.49,368.19,886,382,880.54,392.6c19.58,6.79,48-.77,63.88-6.14q-.63,1.8-1.29,3.57c-11.51,3.79-28.31,8.22-44.11,8.22a58.86,58.86,0,0,1-19.84-3.05q-1.42,2.64-2.84,5c-25.46,41.81-35.87,109.15-36.8,115.4h-2.95c.25-1.78,5.58-38.28,18.24-74.89C840,432.21,826.75,402,820.28,385.05Z"/><path class="cls-38" d="M849.93,515.56H826.44s5.47-50.22,52.13-83.64l5.62,8.79.84-13.13q4.07-2.56,8.5-4.95l7.3,17L904,417.56a167.5,167.5,0,0,1,31.86-10.1C905.33,473.42,851.93,514.05,849.93,515.56Z"/><path class="cls-39" d="M748.81,427.46l4.91,21.71,5.93-15.57a140.1,140.1,0,0,1,17.92,13l1.74,10.79,5.76-3.76c15,15.38,26.19,35.56,27.87,61.9H774s-83.85-23.18-86.77-108.63A216.74,216.74,0,0,1,748.81,427.46Z"/><path class="cls-33" d="M797.93,515.56h-6.52c-45.85-24.8-97.11-99.66-99.35-103l-3.18-4.88,5.6,3.25C695.05,411.8,751.57,494.35,797.93,515.56Z"/><path class="cls-40" d="M878.81,444.17l4.81,7.53.72-11.25c2.32-1.46,4.75-2.88,7.28-4.24l6.26,14.58,2.71-18.92c12.79-5.58,28-9.73,46.15-11.61,0,0-3.9,52.92-27.29,76.23s-60,19.3-60,19.3H834.14S838.83,472.8,878.81,444.17Z"/><path class="cls-41" d="M856.66,515.79h-3.83c55.85-38.38,89.78-92.16,90.12-92.7l2.94-1.73-1.07,2.88C944.48,424.78,911.36,477.29,856.66,515.79Z"/><path class="cls-42" d="M834.17,515.56S881,494.71,912,497.28s63,37,63,37-10.18,3.64-24.85,7.26L936.34,530.6l3.87,13.23c-22.91,4.83-52.26,8.07-72.31-.4C830.51,527.61,834.17,515.56,834.17,515.56Z"/><path class="cls-43" d="M834.17,515.56s.6-.27,2.44-1c9.28-.57,39.21-2.14,65.29-1.17,4.36-3.37,6.17-10.75,6.92-16.24.72,0,1.44.06,2.14.1-.69,5.17-2.3,12.05-6.1,16.26,1.2,0,9.69.74,12.58,1.18,4.59-3.29,5.59-10,5.59-15.21.71.21,1.43.44,2.14.68-.08,5-1.1,11.11-5,15,2.79.48,5.52,1.06,8.17,1.7,5.93-1,9.51-6,11.48-10.09l1.87,1.06c-1.76,3.64-4.72,8-9.42,10,2.31.63,4.55,1.31,6.71,2,7.72-2.13,10.68-4.64,11.82-6.21l1.74,1.23c-1.28,1.78-4.08,4.1-10.13,6.13A217.36,217.36,0,0,1,968.68,532l4,2.35-5.62-.52c-.26-.16-24.8-14.39-54-17.69,7.7,6.15,11,19.08,12.84,26.54.31,1.24.65,2.57.94,3.59l-2.11.32c-.25-.88-.53-2-.89-3.4-2.09-8.29-6-23.63-15.63-27.48-1.55-.11-9.37-.41-11.26-.46,7.33,6.33,12.89,23.71,15.4,32.79-.72.07-1.43.12-2.14.17-3.35-12-10.1-30.93-17.52-33C864,514.75,834.17,515.56,834.17,515.56Z"/><polygon class="cls-13" points="644.52 530.71 640.31 530.71 640.31 440.87 647.79 440.87 644.52 530.71"/><polygon class="cls-13" points="739.91 524.63 735.38 524.63 732.42 445.8 739.91 445.8 739.91 524.63"/><polygon class="cls-13" points="589.94 521.69 585.73 521.69 585.73 439.13 593.21 439.13 589.94 521.69"/><polygon class="cls-13" points="694.41 528.4 689.89 528.35 687.8 452.72 695.28 452.81 694.41 528.4"/><path class="cls-44" d="M708,417.69c-2-14.41,14.76-102.78,22.16-105.39,3.77-1.33,22.76-.59,39.06.34a22.6,22.6,0,0,1,21,26L779.48,408.3c-4.53,29.31-135.11,9-135.11,9Z"/><path class="cls-45" d="M596.3,367.86c24-2.63,77,5.32,86.89,1.44s14-29.38,21.33-40.22C715.1,313.4,719,315.65,730.16,312.3l-16.85,106L647.77,447l-66.48-2.67c-1.09-.07-3.68-20.42-3.62-22.87C578,406.58,568.51,370.91,596.3,367.86Z"/><path class="cls-44" d="M647.75,447.06,590.07,447a8,8,0,0,1-8.06-6.14L580.26,432c-1.67-8.49,5.67-16.22,15.15-16l52.38,1.38Z"/><path class="cls-46" d="M688.15,363.26s-4.26,21,.84,19.49S690.63,365.14,688.15,363.26Z"/><path class="cls-46" d="M600.55,364.27s-5.51,13.9,1.88,32.29c6.43,16,14.73,23.43,18.39,23.47.55,0,17.38-19.56,9.85-35S600.55,364.27,600.55,364.27Z"/><path class="cls-47" d="M672.29,304.93c-2.45-3.47-7.94-3.41-10.34-3.68s-5.4-4.37-7-4.55-.13,4.78,2.41,5.64,0,3.42-1.74,3.8-8.31,1.17-10.45-1.86-5.28-4.48-5.42-3.24,4.65,5.55,4.65,5.55-7.22-4.35-7.39-2.89,6.21,4.35,6.21,4.35-4.1-1-5.06-.11,10.29,5,12.4,5.28,13.62-2.92,17.4-4.1c1.59-.49,5.24,7.48,10.09,17.33a34.71,34.71,0,0,1,3.88-7.87C677.19,312.13,673.26,306.3,672.29,304.93Z"/><path class="cls-48" d="M703.35,340.21c-.54.62-1.3-1.61-1.73-1.48-3.31,1-12.44-10.29-19.69-20.15-1.57,2.48-4.56,5.49-5.47,8.31,6.72,13.66,17.33,30.52,26.37,34,0,0,3.58-4.23,7.72-10.2A74,74,0,0,0,703.35,340.21Z"/><path class="cls-49" d="M674.48,382.26s-65.9-20.31-76.27-16.69l19,26.75,11.21,11.29,56.8-11.46Z"/><polygon class="cls-50" points="617.24 514.54 617.04 530.24 618.79 530.29 620.98 512.38 617.24 514.54"/><path class="cls-47" d="M692.79,386.12c-13.19,7-71,4.69-83.61,7.7s-13.95,15.28-14.89,23.65c-.73,6.5,10,59.37,12.49,86.14-.81,14.3-1,16.84-3.75,21.56s-3.4,5.75.34,5.75c4.79,0,9-.93,9.92-2.9,1.6-3.39,3-15.09,6.26-15.09,0,0,2.23-4.36,1.66-6.65-.81-3.3-3-1.81-3.18-5.9,2.2-26.89,5.46-71,3.82-74.61a32,32,0,0,0-4.35-7.26s70.71,16.25,79,14.28c4.7-1.13,14.92-17,23.69-32.68Z"/><path class="cls-51" d="M618.35,502.23c-1.45,8.78-7.16,26.22-10.53,26.23-4.55,0-4.81-.22-4.79-3.29-2.77,4.77-10.25,7.24-6.52,7.24,4.8,0,16.62.27,17.55-1.7,1.59-3.39,2.47-16.25,5.75-16.25l-1,15.83,1.74,0s2.59-21.78,2-24C621.77,503.39,619.27,502.76,618.35,502.23Z"/><polygon class="cls-50" points="575.02 479.49 572.92 495.05 574.65 495.31 578.99 477.8 575.02 479.49"/><path class="cls-52" d="M613.43,382.51c1.14-10.19-10.28-22.26-15.22-16.94-15.14,16.33-23.67,64.05-28.15,83.45-.71,3.06-6.39,34-10.43,39.31-3.33,4.4-4.07,5.29-.36,5.74,4.76.58,9,.17,10.2-1.67,2-3.18,4.78-14.62,8-14.23,0,0,2.74-4.06,2.45-6.4-.33-2.68-1.87-2.47-2.34-4.29.11-2.88.79-8.1,2.12-11.22C583.17,448.28,612.28,392.7,613.43,382.51Z"/><path class="cls-51" d="M577.62,467.48c-2.49,8.54-10.29,25.09-13.64,24.69-4.51-.53-4.75-.8-4.35-3.84-6.84,3.35-10,6.45-6.31,6.9,4.76.58,15.43,1.77,16.58-.07,2-3.18,4.42-15.83,7.68-15.44l-2.93,15.59,1.73.25s5.19-21.31,4.89-23.54C580.86,469,578.48,468.12,577.62,467.48Z"/><path class="cls-53" d="M746.62,307.81c-1.5-6.11-13-8.56-17.52-4.65,0,0-30.84,21-29.24,34,1.55,12.78,5.92,40.61-6.19,48.41l-.58-.23,30,13.94c6.65-11.9,9.57-22.92,11.52-28.18C739.12,358.94,748.12,313.92,746.62,307.81Z"/><path class="cls-54" d="M693.09,385.38c-11.86-4.58-74.77-24.22-92.54-21.11,0,0,28.39,30.72,20.27,55.76,0,0,69.17,20,75.44,15.23s23.46-31.43,23.5-31.49l3.3-4.45Z"/><path class="cls-47" d="M692.84,367.92c-12.87-3.85-26-8.6-26-8.6a9.62,9.62,0,0,1,1.9-8.28c3.18-3.75,5-5.69,3.55-5.85s-6,4.49-6,4.49,2.49-5.41,5.19-7.48.29-4-4.69,3-4.52,4.15-4.36,2.66,5.77-8.17,5.29-10.88c-.45-2.5-7.57,9.07-8.85,12.86,3-17.74-1.27-13.76-3.2,3.44-.56,4.94,4,11.76,4.09,11.92.32.62,18.25,10.32,32.92,17.55C692.81,377.86,693.42,372.75,692.84,367.92Z"/><path class="cls-55" d="M647.56,326.88c-24.26-2.72-27-22.1-27-22.3a.75.75,0,0,1,.68-.83.79.79,0,0,1,.87.67c.09.75,2.6,18.38,25.6,21a.78.78,0,0,1,.69.84A.76.76,0,0,1,647.56,326.88Z"/><path class="cls-56" d="M745.79,271.08s8.79-1.51,9.55,3.15-2.28,11.83-5.75,14.12c-2.69,1.76-12,7.49-14.58,1.95S735.36,270.21,745.79,271.08Z"/><path class="cls-57" d="M750.78,272.87c1.83,4.61,1.72,9.51-2.95,12.81l1,1.42C753.46,283,753.42,277.82,750.78,272.87Z"/><path class="cls-47" d="M729.21,280.18s-.53,7.86-.45,14.27c0,3.47-1.35,5.79-2.21,8.39s-10.58,14.87-7.73,15.74c1.74.53,13.92-7.83,16-8.75,3.27-1.48,6.5-4.2,9.43-5.72l-4.58-32.52Z"/><path class="cls-49" d="M739.64,271.59l-10.43,8.59s-.3,4.56-.42,9.57c3.33-1.33,8.55-7.16,10.38-14.49C739.64,272.14,739.64,271.59,739.64,271.59Z"/><path class="cls-47" d="M725.11,242.78a12.79,12.79,0,0,0-6.59,5.55c-2.39,4.23-1.13,10.33-2.52,14.11s1.4,22.73,9.94,23.22c10.69.6,15-15,16.09-18.08s.61-15.22-3.88-19.58S725.11,242.78,725.11,242.78Z"/><path class="cls-58" d="M722.9,264.21a62.76,62.76,0,0,1-1.5,8,5.08,5.08,0,0,0,2.93.62,4.8,4.8,0,0,1-3.42-.4A65,65,0,0,1,722.9,264.21Z"/><path class="cls-58" d="M728.76,260.14a10.16,10.16,0,0,1,4.57-.53c2.29.35,4.66,3.62,4.66,3.62s-2.84-2.74-4.38-2.92a9,9,0,0,0-3.25.37Z"/><path class="cls-58" d="M723.41,258.77a8.17,8.17,0,0,0-3.07-2.6c-1.8-.75-4.94,1-4.94,1s3.25-1.1,4.43-.54A7.28,7.28,0,0,1,722,258.5Z"/><path class="cls-6" d="M728.34,275.83c-4.18,2.16-5.85,2.3-7.41,2.22C723.36,279.33,727,277.84,728.34,275.83Z"/><path class="cls-58" d="M729.3,263.93a1.39,1.39,0,0,0,1.49,1.25,1.43,1.43,0,1,0-1.49-1.25Z"/><path class="cls-59" d="M735.18,264.77c-4.69-4.91-6.71-1.46-8.32-1.25,1.3.11,2.84-1.21,4.26-.81A21.27,21.27,0,0,1,735.18,264.77Z"/><path class="cls-58" d="M718.58,263c.13.78.68,1.33,1.24,1.22a1.31,1.31,0,0,0,.78-1.6c-.13-.78-.69-1.32-1.24-1.21S718.45,262.23,718.58,263Z"/><path class="cls-59" d="M722.69,263.48c-3.9-4.46-5.62-.88-7-.55,1.09,0,2.4-1.43,3.59-1.15A14.74,14.74,0,0,1,722.69,263.48Z"/><path class="cls-49" d="M729.57,271c.4,1.29,2.17,1.9,3.95,1.37s2.91-2,2.51-3.32-2.17-1.9-3.95-1.37S729.17,269.65,729.57,271Z"/><path class="cls-60" d="M734.71,248.33c-5.63-6-10-5.17-10.38-5.32a1.67,1.67,0,0,1,.31-.45c1-1.34,4.4-5.06,11.32-3.64,7.09,1.29,11.11,2.3,15.11,7.92,1.8,2.52,2,7,1.52,9.88-.9,5.28-3.32,6-2.93,11.4.37,5.2-11.29,8.46-11.29,8.46.23-.63,1.4-5.66,2-6.93a10.06,10.06,0,0,0,.24-8c-.55.19-2-.47-2.83-1.27C735.18,257.79,737.75,255.45,734.71,248.33Z"/><path class="cls-56" d="M728.36,240.12a15.14,15.14,0,0,0-10.21.53c-5.11,2.31-8,14.73-6.14,17.77s-9.6,4.41-3.87,6C716.27,266.59,733.19,242.37,728.36,240.12Z"/><path class="cls-61" d="M726.41,241.56c-7.78-1.72-13.87,3.43-13,10.11a3.76,3.76,0,0,0,1.53,2.9l.75-1.43c-.42-.13-.75-1.27-.84-1.68C713.58,245.56,718.91,240.47,726.41,241.56Z"/><path class="cls-47" d="M739.12,264.53s1.62-5.43,3.42-2.38-1.25,8.59-3,7.83S739.12,264.53,739.12,264.53Z"/><path class="cls-49" d="M739.45,265.37s1.21-3.13,1.95-2.39-.53,6.57-1.46,5.63S739.45,265.37,739.45,265.37Z"/><path class="cls-62" d="M744.48,303.75s-10.94,3.76-17.08,22.6-6.94,43-13.7,45.22c-3.13,1-15.2-5.22-25.55-8.31,3,6.37.94,14.6.84,19.49,5.42,2.68,11.31,4.11,14.78,5.53,13,5.33,17.07,4,25-4.78S762.87,303.09,744.48,303.75Z"/><path class="cls-63" d="M645.35,461.13l88.28-.59A46.74,46.74,0,0,0,777.51,421l13.37-86.47c1.8-11.66-9.45-21.41-20.55-17.43a4.13,4.13,0,0,0-2.32,1.49c-5.29,10.49-13.5,47.39-26,58.14-14.85,12.76-54.58,6.11-82.37,3.69,0,0-15.34-2.26-17.9,11C639.55,402.66,644.84,448.05,645.35,461.13Z"/><path class="cls-64" d="M765.28,322.7c-5.72,11.42-17.57,43.24-25.36,49.11l-1.09,1c-11.26,9.44-49.89,4.43-65,3l-11.45-1c-8.65-.71-17.21.42-22.33,7.48-4.06,5.34-3.8,11.74-3.61,18,1.27,20.87,5.18,40.74,8.93,60.9,1.54-18.31-.62-58.33,1.27-67.82.64-3.41,1.92-5.58,5.65-6.72,9-2.67,68.92,12.52,91.34-4.69,17.67-14.94,21.87-60.65,25.15-63.77a6.59,6.59,0,0,1,1.57-1C767.75,317.67,767.76,318,765.28,322.7Z"/><path class="cls-44" d="M770.33,317.09c9.32-2.86,21.53,4.55,18.61,18.79-7.82,40.94-10.38,57.67-14.66,83.77-3.18,20.64-19.59,37.34-44,37.88-16.89.29-54.8,1.49-84.94,3.6,28.62,1.62,58.43,2.2,87.23,2.48,15.25.45,33.49-8.8,42.83-25.71,6.1-11.21,5.68-20.73,8.08-34,2.12-15.48,4.29-29.23,8.82-67.47C794.2,320.6,780.67,312.61,770.33,317.09Z"/><path class="cls-32" d="M249.9,451.29l17.48-15.66c7.56-23.78,11.31-50.38,5.48-76.58a219.6,219.6,0,0,0-40,12.56l-9.43,19.65-4.49-12.92c-9.85,5.42-19.09,12.11-25.68,20.23l5.33,26.77L185.9,411a38.22,38.22,0,0,0-2.18,8.28c-6.47,44.34-5.53,99.31-5.53,99.31h44.52a282.38,282.38,0,0,0,36.59-61.41Z"/><path class="cls-33" d="M223.91,500.16c-10.8,5.34-18.51,5.38-21.29,5.16,13.84-18,25.84-40.86,35.14-61.43.67,0,1.33,0,2,0,12.14,0,21.64-5.11,28.39-10.7.25-.82.5-1.65.74-2.49-6.85,6.14-17.07,12.19-30.49,11.77,2.71-6,5.28-12.07,7.76-18.18,10.18-1.31,20.23-7.47,27.22-12.75.12-.69.24-1.39.35-2.09-6.73,5.23-16.85,11.77-27,13.34,12.55-31.12,20.43-56.27,20.51-56.54l2.51-5.65-3.54,3.92c-.13.49-6.62,20.87-16.47,46.61-5.24-11.06-2.4-38.1-1.5-45.4l-1.49.5c-1,8.58-3.78,36.12,2.32,46.65a528.23,528.23,0,0,1-23.36,52.51c-3.74-5.63,2.47-42.1-7.95-56.49-6.35-8.78-7.2-19-6.86-25.79q-.72.47-1.44,1c-.21,7,.9,17,7.16,25.65,10.5,14.49,3.29,52.12,8.39,57q-2.7,5.18-5.56,10.21c-10.46-32.79-10.32-34-8.89-47,.82-7.48,1.59-14.54-3.41-19.53-4.35-4.33-5.79-12.9-6.19-19.86l-1.36,1.21c.51,7,2.11,15.22,6.55,19.64,8,7.95-.31,22.12,3.28,36.2,3.25,12.75,8.25,28.38,9.07,30.95-3.91,6.8-8,13.34-12.29,19.42-1.76-1.48-9.17-8.72-7.07-23.95,1.71-12.37-9.89-28.12-17.61-37-.06.66-.13,1.32-.19,2,7.52,8.92,18,23.61,16.41,34.85-2.25,16.26,5.76,23.78,7.65,25.3a146.21,146.21,0,0,1-16.23,19.38h2q1.49-1.5,3-3.09c5.49,1.72,14,.8,22.46-5.45a20.07,20.07,0,0,1,15.18-3.64l.89-1.27a21.54,21.54,0,0,0-16.91,3.79c-9.61,7.11-17.79,6.06-20.56,5.4q3.29-3.66,6.44-7.7c7.07,1,16.33-1.95,22.93-5.2a29.84,29.84,0,0,1,12.56-3c.29-.46.59-.93.9-1.4A31.4,31.4,0,0,0,223.91,500.16Z"/><path class="cls-34" d="M191.27,417.07,185.9,411a38.22,38.22,0,0,0-2.18,8.28c-6.47,44.34-5.53,99.31-5.53,99.31S195.59,478.29,191.27,417.07Z"/><path class="cls-35" d="M32,483.69c1.87,0,25.77-12.14,66.55,0A242.28,242.28,0,0,1,169,518.58s-46.62,9-89.27,2S32,483.69,32,483.69Z"/><path class="cls-36" d="M164.16,515.26c-26.77-18.35-67.77-37.51-102.27-36.95,7.24,20.4,17,35.25,36.4,44.37,29.32,2,57.11-1.65,67-3.21C165,518.17,164.6,516.76,164.16,515.26Z"/><path class="cls-35" d="M165.21,340.68l-17.49,18.37,6.9-38.38a190.69,190.69,0,0,0-21.08-29.3c-21.09-23.81-59-59.17-59-59.17A227.84,227.84,0,0,0,55.93,284l19.61,20L52.8,301.7C36,430.73,153.93,518.58,153.93,518.58h24.26s10.89-105,2.1-137.24A249.91,249.91,0,0,0,165.21,340.68Z"/><path class="cls-37" d="M182.38,393.09q-.36-3.13-.82-5.9c-5.12,14-18.65,47.83-33.35,56.69-.5-1.41-1-2.82-1.54-4.22,14.65-5.41,26.48-41.62,32.29-63-.5-1.69-1-3.37-1.56-5.06C171.31,395,159,432.3,145.68,437.05a194.51,194.51,0,0,0-14.8-30.88c-4.67-7.66-9.44-18.21-14.12-30.34,12.64-9.63,22.32-50.53,26.63-72.23-.73-1-1.47-2-2.21-2.94-3.94,20.24-13.73,62.35-25.47,72.42-3.38-8.92-6.7-18.63-9.89-28.62,10.74-16,14.29-50,15.41-66.39l-2.66-2.76c-.89,14.24-4,48.62-13.87,65.63-15.77-50.08-29-105.21-29.16-106.06l-1.05-1.94v2.11c.21,1,14.89,70.76,33.41,124.63C87,366.62,64.12,352,51.75,342c.1,1.3.22,2.6.34,3.89a117.58,117.58,0,0,0,10.76,7.43c11.91,7.27,23.31,11,33.63,11a38.86,38.86,0,0,0,12.35-1.95c5.08,14.57,10.37,27.82,15.61,38-18.82,6.54-46.19-.73-61.42-5.89.41,1.15.82,2.29,1.24,3.42,11.06,3.65,27.22,7.91,42.41,7.91a56.78,56.78,0,0,0,19.08-2.93q1.36,2.53,2.72,4.76c24.49,40.2,34.5,105,35.39,111h2.84c-.24-1.71-5.37-36.81-17.54-72C163.43,438.44,176.16,409.39,182.38,393.09Z"/><path class="cls-38" d="M153.88,518.58h22.58s-5.27-48.28-50.13-80.42l-5.4,8.45L120.12,434q-3.9-2.48-8.17-4.76l-7,16.36-3.05-21.23a160.21,160.21,0,0,0-30.63-9.71C100.6,478.06,152,517.13,153.88,518.58Z"/><path class="cls-39" d="M251.1,433.87l-4.72,20.88-5.7-15a135.85,135.85,0,0,0-17.23,12.53l-1.68,10.38-5.53-3.62c-14.45,14.79-25.18,34.2-26.81,59.52h37.49s80.62-22.29,83.44-104.45A208.31,208.31,0,0,0,251.1,433.87Z"/><path class="cls-33" d="M203.87,518.58h6.26c44.09-23.84,93.38-95.82,95.53-99l3.06-4.7L303.33,418C302.79,418.82,248.45,498.19,203.87,518.58Z"/><path class="cls-40" d="M126.11,449.94l-4.63,7.24-.7-10.82q-3.34-2.1-7-4.07l-6,14-2.61-18.19c-12.3-5.37-26.95-9.36-44.37-11.16,0,0,3.75,50.88,26.24,73.28s57.65,18.56,57.65,18.56h24.37S164.54,477.47,126.11,449.94Z"/><path class="cls-41" d="M147.4,518.8h3.69c-53.71-36.9-86.33-88.6-86.66-89.13L61.61,428l1,2.77C63,431.3,94.8,481.78,147.4,518.8Z"/><path class="cls-42" d="M169,518.58S124,498.53,94.19,501,33.6,536.59,33.6,536.59s9.79,3.5,23.89,7L70.79,533l-3.72,12.73c22,4.64,50.24,7.76,69.52-.39C172.55,530.17,169,518.58,169,518.58Z"/><path class="cls-43" d="M169,518.58s-.58-.26-2.35-1c-8.93-.56-37.7-2.06-62.78-1.13-4.19-3.24-5.93-10.33-6.65-15.62l-2.06.1c.66,5,2.22,11.59,5.87,15.63-1.16.06-9.32.72-12.1,1.14-4.41-3.17-5.38-9.6-5.37-14.62-.69.2-1.37.42-2.06.65.08,4.8,1.06,10.68,4.8,14.4-2.68.46-5.3,1-7.85,1.63-5.7-.92-9.15-5.77-11-9.7l-1.8,1c1.7,3.5,4.55,7.65,9.06,9.66-2.22.61-4.38,1.25-6.45,1.93-7.42-2-10.27-4.46-11.37-6l-1.67,1.18c1.24,1.71,3.92,3.94,9.74,5.9A207.2,207.2,0,0,0,39.7,534.43l-3.81,2.26,5.41-.5c.25-.15,23.85-13.84,51.93-17-7.4,5.92-10.53,18.34-12.34,25.52-.3,1.19-.63,2.47-.91,3.45l2,.31c.24-.85.51-1.93.85-3.27,2-8,5.73-22.73,15-26.43,1.5-.1,9-.39,10.83-.43-7,6.07-12.4,22.79-14.81,31.52L96,550c3.22-11.51,9.71-29.74,16.84-31.78C140.34,517.81,169,518.58,169,518.58Z"/><polygon class="cls-13" points="266.73 522.44 270.94 522.44 270.94 432.6 263.46 432.6 266.73 522.44"/><polygon class="cls-13" points="171.34 521.69 175.87 521.69 178.83 437.52 171.34 437.52 171.34 521.69"/><polygon class="cls-13" points="216.79 520.37 221.31 520.31 223.45 444.92 215.97 445.01 216.79 520.37"/><path class="cls-44" d="M203.25,409.42c2-14.41-14.76-102.78-22.16-105.39-3.56-1.26-20.75-.67-36.39.19a24.94,24.94,0,0,0-23.29,28.71L131.77,400c4.53,29.31,135.11,9,135.11,9Z"/><path class="cls-45" d="M300.86,364.27c-22.67-2.5-62,.46-71.4-3.22s-17.2-23.94-24.11-34.22c-10-14.88-13.66-12.75-24.26-15.93L197,411.48l62,27.27,62.89-2.54c1-.06,3.48-19.37,3.42-21.69C325,400.37,327.15,367.17,300.86,364.27Z"/><path class="cls-49" d="M334.75,502.74c-.15,1.44-2.65,3.69.84,6,1.17.76,1.42-1.11,5.81,1,3,1.41,8.2,7.33,11.17,8.06a17,17,0,0,0,10.34-.76c-2.85-1.85-5.1-4.06-8.27-5.73-9.66-5.09-14.38-44-16-42.35-3.55,1.67-9.56,3.22-13.08,4.27C330.79,480,335.42,496.47,334.75,502.74Z"/><path class="cls-65" d="M339.29,503.26c-1.14-.75-2.9-.55-4.54-.52,0,1.45-4,4.19-.64,6.4s8.35,16.1,8.35,16.1l2.29-.64s-7.46-15.35-4.05-14,9.38,12.15,9.38,12.15l15.64-4.7-1-2.86c-1.65-1.07-4.27-2-5.86-.7C352.21,520.11,344.32,505.55,339.29,503.26Z"/><path class="cls-66" d="M317.16,392.76c-5.49-9-42.55-12.08-74.27-18.06-20.56-3.88-33.17-10.22-33.17-10.22l-6,16.16,25.67,17.63,76.83,6.3s16.9,64.75,25.88,80.1l17.44-3.92C339.39,460.77,322.19,401.06,317.16,392.76Z"/><path class="cls-47" d="M328,474.26q-5.76,1.49-11.52,3.32c2.62,7.53,4.35,13.64,3.72,15.51-.49,1.45-1.06,2.91-1.62,4.31-1.56,3.94-1.18,7-.13,8.37.64.82,3.6-.73,6.28,3.35,3.3,5,4.55,16.12,4.55,16.12l17.29-.52s2.11-1.5-2-4.22-7.13-3.26-9-6.73-4.48-22.5-6.83-34.56C328.6,478,328.33,476.29,328,474.26Z"/><path class="cls-58" d="M347.27,523.13h0a18.25,18.25,0,0,0-9.24-7.19l-3.17,3.19c-5.21-4.33-6.75-12.62-10.43-17.34a11.6,11.6,0,0,0-5.82-4.39c-1.56,3.94-3,7.4-1.94,8.75,1.43,1.83,4.88,20.11,4.88,20.11l2.52-.5S319.62,511,322,509.61s6.52,16.82,6.52,16.82l19.14-1S348.34,524.86,347.27,523.13Z"/><path class="cls-49" d="M302.72,369.51c-1.08-1.42-8-1.57-8-1.57a46.32,46.32,0,0,1-15.25-1.9c-4.75-1.54-29.72-8.55-44.31-18.07-4.28,4.68-10.69,8-13.65,13.29.77.46,1.54.9,2.31,1.31,29.64,15.58,52.19,12.73,52.19,12.73s10.14,3.9,15,4.46,8.43-.85,5.89-2.46-4,0-6.33-1.49-1.46-1.36-.26-2.8,8.38,0,8.56,1.13,3.11,9.88,4.55,8.15-2.11-10.13-3.06-10.73-6-1.56-6-1.56l6.83,1.08s2.59,9,3.79,8.77S303.81,370.93,302.72,369.51Z"/><path class="cls-12" d="M235.2,348c-2-1.3-28-54.89-45.92-54.89-3.85,0-17.58,3-17.58,3s21.36,51.49,49.85,68.42C224.51,359.23,230.92,352.65,235.2,348Z"/><path class="cls-67" d="M298.91,391.45l-53.5-7.28S211.64,372,211.58,366.58c-1,.24-19.51,11.73-19.51,11.73-4.18,13.34,1.14,42.93,10.68,41,13.2,3.48,83.65,2,83.65,2s22.53,50.81,28.8,68.85c4.69-1.51,12.19-4.37,16.89-5.58C329.3,465.67,303.79,391.87,298.91,391.45Z"/><path class="cls-68" d="M232.54,372.41c-1.29-5.88-19.35.76-19.35-26.32,0-9-.61-13.68.16-21.61.75-7.68-28.23-35.51-28.23-35.51s-25.12,4.16-24.79,12.24,9.26,51.22,9.56,53.84c.92,8.17,22.78,42.38,22.18,48.55C202.52,401.51,228.62,384.32,232.54,372.41Z"/><path class="cls-69" d="M213.9,346.09c0-9-.61-13.65.15-21.54s-25.45-33.22-28.44-36.09l-1,1c8,7.67,28.6,28.91,28,34.93a101.83,101.83,0,0,0-.29,13.92c.42,15.82-.83,26.67,15,31.52,2.69.82,4.22,1.36,4.52,2.71l1.38-.31C231.73,365.41,213.9,373.12,213.9,346.09Z"/><path class="cls-70" d="M172.59,229c-.91,1.27-11.9,1.89-19,13.47-6.88,11.3.51,30.64,5.27,39.91a19.9,19.9,0,0,0,3.74,5.18,31.62,31.62,0,0,1,9.42-3.33c5.06-.83,13.13-1.57,18.42-3.48s-.72-35.24-6.16-42.76S172.59,229,172.59,229Z"/><path class="cls-71" d="M165.6,229s17.69-5.48,23.68,6.75c3.71,7.56,5.48,31.38,12.59,30.87,0,0-2.79,3.78-5.44,4.22,0,0-1,2.19,4,5.83a34.57,34.57,0,0,1-10,4c-.37.07-4,1.94-5-1.25-1.22-3.79.12-13-1-16.66C179.47,247.27,165.6,229,165.6,229Z"/><path class="cls-72" d="M173.1,230.33a11.77,11.77,0,0,1,3.21-.28S185,231.87,187,239.3s2.66,12.2,4.48,16.9c2.85,7.39,2.19,21.34-6.18,22.86-1-4,.2-12.72-.93-16.27C180.28,249.81,174.79,234.86,173.1,230.33Z"/><path class="cls-47" d="M169.89,267.24l1.78,25.13s16.74,18.62,24.24,16.91c.4-.09-7.71-16.65-7.92-17.27,0,0-1.84-14.73-2.21-19.15S169.89,267.24,169.89,267.24Z"/><path class="cls-49" d="M170.51,268.12l1.19,13.68c9.36,6.13,14.34-5.43,14.43-5.5-1-3.61-.22-1.89-.35-3.44C185.42,268.44,170.51,268.12,170.51,268.12Z"/><path class="cls-47" d="M173.1,230.47a16.49,16.49,0,0,1,12.76,6.95c3.29,4.85,3,11.28,5,16.63,1.73,4.51,2.27,17.37-4.4,22s-18.86-5.43-21.67-10.5-5-12.7-4.87-21.55a14.16,14.16,0,0,1,7-12.18A11.19,11.19,0,0,1,173.1,230.47Z"/><path class="cls-71" d="M185.09,261.48c-1.47-1-2.28-3.42-2.38-5.05.72,1.42,1.84,4,3,4.76l.24.16A4.82,4.82,0,0,1,183.2,263,7,7,0,0,0,185.09,261.48Z"/><path class="cls-73" d="M178.59,249.67a5,5,0,0,0-2.73-.74c-1.73,0-4.89,2.62-4.89,2.62a30.38,30.38,0,0,1,4.35-1.82,7.34,7.34,0,0,1,2.73.48Z"/><path class="cls-73" d="M183.24,249.11a4.65,4.65,0,0,1,1.85-1.61c1.34-.7,4.75,0,4.75,0a27,27,0,0,0-4,.35,6.85,6.85,0,0,0-2,1.42Z"/><path class="cls-70" d="M179.89,254.13a4.63,4.63,0,0,0-3.94-.28c-1.49.62-2.12,2.08-3,2.47,1.54.06,1.7-1.68,5.1-2.2A6.31,6.31,0,0,1,179.89,254.13Z"/><path class="cls-70" d="M184.91,254.6a4.62,4.62,0,0,1,2.69-2.89c1.52-.57,3,.08,3.92-.27-1.09,1.09-2.39-.07-5.23,1.86A6.07,6.07,0,0,0,184.91,254.6Z"/><path class="cls-49" d="M177.71,260.82c.25,1.18-1.11,2.47-3,2.87s-3.67-.24-3.92-1.43,1.11-2.48,3-2.87S177.46,259.63,177.71,260.82Z"/><path class="cls-49" d="M191.59,257.18c.19.9-.69,1.85-2,2.11s-2.46-.25-2.65-1.15.7-1.85,2-2.12S191.41,256.28,191.59,257.18Z"/><path class="cls-74" d="M173.1,230.33s-8.34,13-5.95,22.69,12.95,20.52,12.95,20.52l-6.38,5,7.37,4.33s-21.33,5.9-25.67,5.9-22.59-20.65-8.69-47.15C153.28,229.13,166.25,226.86,173.1,230.33Z"/><path class="cls-74" d="M179.53,267.24s8.79-.87,9.75-2.75c0,0-.48,4.2-3.34,5S179.53,267.24,179.53,267.24Z"/><path class="cls-6" d="M189,265.86a9.22,9.22,0,0,0,.3-1.37c-1,1.88-9.75,2.75-9.75,2.75a12.78,12.78,0,0,0,1.21.88C183,267.83,187.63,267.08,189,265.86Z"/><path class="cls-63" d="M265.9,452.86l-88.28-.59a46.74,46.74,0,0,1-43.88-39.55l-13.37-86.47c-1.8-11.66,9.45-21.42,20.55-17.43a4.18,4.18,0,0,1,2.32,1.48c5.29,10.5,13.5,47.39,26,58.15,14.85,12.76,54.58,6.11,82.37,3.69,0,0,15.34-2.26,17.9,11C271.7,394.39,266.41,439.78,265.9,452.86Z"/><path class="cls-44" d="M265.9,452.86c-11.45.43-84.38,2.64-93.87,1.16a48.64,48.64,0,0,1-40.94-41.73c0-.21-12.21-82.6-12-88.65.52-11.1,11.61-19.07,21.85-14.82-9.52-3.08-21.88,4.5-19,18.85,16.39,90,13.11,87.77,19.29,99.05A44.85,44.85,0,0,0,180.94,450C191.07,450.29,221.69,450.6,265.9,452.86Z"/><path class="cls-64" d="M140.92,308.82c2.23.59,2.31.56,4.81,5.7,5.13,11,16.39,43.5,24.57,50l1.17,1.1c11.77,10.12,49.74,5.21,66.15,3.59L250.88,368c11.86-.91,21.13,4,22.42,15.77,1.53,14.59-5.72,57.87-7.4,69.05-1-35.81,3.71-66.74-1.94-73.23-4.56-5.69-15.35-2.72-17.89-2.74l-7.57.85c-58.88,6.34-72.16,2.07-83.06-25.95-6.85-17.74-10.94-40.26-12.91-42A6.86,6.86,0,0,0,140.92,308.82Z"/><path class="cls-75" d="M168.45,231.62a18,18,0,0,0-4.35,3.55c-10,10.78-7.81,24.71,3.09,32.38L164,271.69c-11.68-10.51-12.52-26.56-.36-37A18.19,18.19,0,0,1,168.45,231.62Z"/><path class="cls-75" d="M163.24,230.45c-10.44,7.84-18.56,21.7-12.7,33.28l.84,1.93c.18.17,6.61,14,20.49,14.62l-.34,5.2C148.8,282.59,133.18,249.71,163.24,230.45Z"/><path class="cls-75" d="M173.1,230.33s6.76-2.11,11.81,1.29-.17,11.36-6.32,13.9-14.46,4.45-13,10.81,4.29,8.16,4.29,8.16-9.56-3.06-9.56-11.47S163.33,231.2,173.1,230.33Z"/><path class="cls-47" d="M260.71,372.88a22.41,22.41,0,0,0-8.2-5.07,23.05,23.05,0,0,0-6.57-.24,34.46,34.46,0,0,0-6.18,0c-7.66.68-45.63-.16-49.92-3a9.63,9.63,0,0,1-2-1.91c-5.78,4.81-11.35,9.83-13.87,15.92a10.82,10.82,0,0,0,1.12.74c14.09,7.89,51.25-3.49,61.67-5.23s17,4.29,19.88,7.06c.23.22.94.48.94-.87s-2.93-5.36-2.93-5.36a11.74,11.74,0,0,1,4.73,6.11c1.3,4.11,1.54-.06.95-1.71s-3.69-4.77-3.69-5.05c0-.73,4.78,5.42,5.43,7.09s1.24-1.08.43-2.71a13.32,13.32,0,0,0-1-1.61,10.29,10.29,0,0,0,2.19,2.28C264.12,379.23,263.34,375.55,260.71,372.88Z"/><path class="cls-76" d="M189.84,364.48c-3.71-17.31-15.92-70.74-24.24-69.51,0,0-9.35-.51-12.57,11-3.14,11.26,7.38,63.74,20.94,73.73C176.49,373.66,184.06,369.28,189.84,364.48Z"/><rect class="cls-6" x="1026.91" y="288.43" width="89.87" height="132.78" transform="translate(1426.67 -717.02) rotate(90)"/><rect class="cls-12" x="1022.83" y="374.22" width="77.91" height="3.15"/><rect class="cls-12" x="1046.96" y="339.26" width="3.15" height="36.53"/><path class="cls-12" d="M1085.45,374.37a9.15,9.15,0,1,0,9.14,9.15A9.15,9.15,0,0,0,1085.45,374.37Zm0,15.14a6,6,0,1,1,6-6A6,6,0,0,1,1085.45,389.51Z"/><path class="cls-12" d="M1037.47,374.37a9.15,9.15,0,1,0,9.15,9.15A9.15,9.15,0,0,0,1037.47,374.37Zm0,15.14a6,6,0,1,1,6-6A6,6,0,0,1,1037.47,389.51Z"/><path class="cls-12" d="M1085.45,374.37a9.15,9.15,0,1,0,9.14,9.15A9.15,9.15,0,0,0,1085.45,374.37Zm0,15.14a6,6,0,1,1,6-6A6,6,0,0,1,1085.45,389.51Z"/><path class="cls-12" d="M1037.47,374.37a9.15,9.15,0,1,0,9.15,9.15A9.15,9.15,0,0,0,1037.47,374.37Zm0,15.14a6,6,0,1,1,6-6A6,6,0,0,1,1037.47,389.51Z"/><path class="cls-12" d="M1072.51,314.66a19.87,19.87,0,1,0,19.87,19.87A19.87,19.87,0,0,0,1072.51,314.66Zm0,36.59a16.71,16.71,0,0,1-16.72-16.72c0-14.83,18-22.31,28.54-11.82S1087.22,351.25,1072.51,351.25Z"/><path class="cls-12" d="M1097.59,380.37V342.42h-6.83a20.22,20.22,0,0,0,1.06-3.16h8.92v44.26h-6.15a9.11,9.11,0,0,0-.56-3.15Z"/><path class="cls-12" d="M1030.88,354.3l7.09-15h15.24a19.23,19.23,0,0,0,1.06,3.16H1040l-6.24,13.23-.35.75-.67.48-6.72,4.77v18.72h2.9a9.11,9.11,0,0,0-.56,3.15h-5.5V360Z"/><path class="cls-12" d="M1076.86,380.37a8.89,8.89,0,0,0-.56,3.15h-29.68a8.89,8.89,0,0,0-.56-3.15Z"/><path class="cls-12" d="M1061.79,337.77h14.47V321.06a1.07,1.07,0,0,0-2.13,0v14.58h-12.34a1.07,1.07,0,1,0,0,2.13Z"/><path class="cls-12" d="M1096.22,355.13h28.18c.26,0,.48-.37.48-.83s-.22-.82-.48-.82h-28.18c-.26,0-.47.37-.47.82S1096,355.13,1096.22,355.13Z"/><path class="cls-12" d="M1106.88,362.22h26.19c.26,0,.47-.37.47-.83s-.21-.83-.47-.83h-26.19c-.26,0-.47.37-.47.83S1106.62,362.22,1106.88,362.22Z"/><path class="cls-12" d="M1107.78,372.84h25.29c.26,0,.47-.37.47-.83s-.21-.83-.47-.83h-25.29c-.26,0-.47.37-.47.83S1107.52,372.84,1107.78,372.84Z"/><path class="cls-12" d="M1099.48,343h18.24c.26,0,.47-.37.47-.83s-.21-.82-.47-.82h-18.24c-.27,0-.48.37-.48.82S1099.21,343,1099.48,343Z"/><rect class="cls-3" x="903.36" width="160.66" height="278.6" rx="36.9"/><rect class="cls-4" x="859.58" y="74.16" width="248.22" height="130.28" rx="21.71" transform="translate(1123 -844.39) rotate(90)"/><rect class="cls-6" x="931.83" y="37.52" width="104.04" height="194.59"/><path class="cls-77" d="M970.86,209.44c.89,1.95,5.68,12,10.35,14.3a.44.44,0,0,0,.15,0l4.88.74a.34.34,0,0,1,.14.05l4.87,2.3a.36.36,0,0,0,.21.05h0a.49.49,0,0,1,.48.49V228a.49.49,0,0,1-.34.47c-.92.27-3.93.86-12.33.48a.51.51,0,0,1-.42-.26c-.69-1.36-4.15-7.81-7.5-9a.49.49,0,0,0-.64.47v8.41a.48.48,0,0,1-.49.48h-.77a.48.48,0,0,1-.48-.44c-.19-2.17-1-11.57-1.84-12.4s-1.75-6.3,3.2-7.11A.49.49,0,0,1,970.86,209.44Z"/><path class="cls-77" d="M974.84,224.18c.19,1.76.32,3.3.38,4a.48.48,0,0,0,.49.45h.76a.49.49,0,0,0,.49-.49v-.77A32,32,0,0,0,974.84,224.18Z"/><path class="cls-77" d="M997.71,226.48a.54.54,0,0,1-.21,0l-4.87-2.31-.13,0-4.89-.75a.33.33,0,0,1-.14,0C982.8,221,978,210.94,977.11,209a.47.47,0,0,0-.52-.27,4.26,4.26,0,0,0-3.61,2.77,49.67,49.67,0,0,0,5,8,11.08,11.08,0,0,1,3.73,3.37l4.73.72a1.57,1.57,0,0,1,.42.13l4.77,2.26a1.52,1.52,0,0,1,1.38,1.51V228a1.58,1.58,0,0,1-.12.58,21.41,21.41,0,0,0,5-.56.5.5,0,0,0,.35-.47V227A.49.49,0,0,0,997.71,226.48Z"/><path class="cls-78" d="M1015.85,243.82a2.41,2.41,0,1,1-2.41-2.4A2.41,2.41,0,0,1,1015.85,243.82Z"/><path class="cls-78" d="M1029.9,243.82a2.41,2.41,0,1,1-2.41-2.4A2.41,2.41,0,0,1,1029.9,243.82Z"/><path class="cls-78" d="M1044,243.82a2.41,2.41,0,1,1-2.41-2.4A2.41,2.41,0,0,1,1044,243.82Z"/><polygon class="cls-42" points="944.73 22.56 949.74 29.82 957.87 26.42 958.16 35.23 966.84 36.77 962.31 44.34 968.79 50.32 960.89 54.24 963.1 62.78 954.34 61.81 951.58 70.19 944.73 64.63 937.89 70.19 935.13 61.81 926.37 62.78 928.58 54.24 920.68 50.32 927.15 44.34 922.63 36.77 931.31 35.23 931.59 26.42 939.73 29.82 944.73 22.56"/><path class="cls-6" d="M951.77,35.56h2.59l-15,21h-2.59l12.8-18a21.55,21.55,0,0,1-5.93.29,4.51,4.51,0,1,1-4.34-2.89C941.12,35.92,946.71,38,951.77,35.56Zm-13.84,3.33a2.17,2.17,0,0,0,0,3.07c2,2,5.09-1.06,3.06-3.08A2.66,2.66,0,0,0,937.93,38.89Zm17.21,9.18a4.5,4.5,0,1,1-7.68,3.19A4.5,4.5,0,0,1,955.14,48.07Zm-4.73,1.65c-2,2.06,1.09,5.08,3.08,3.07A2.17,2.17,0,0,0,950.41,49.72Z"/><path class="cls-79" d="M971.1,96.41l2.84-.83s4.23,3.61,9.2,3.16A23.86,23.86,0,0,0,992,96.06l4.55,1.12s-6.87,17.83-12.71,16.2S971.1,96.41,971.1,96.41Z"/><path class="cls-80" d="M968.93,111.37s.1,4.53.62,5.87l1.44,3.81,1.13,8.55h21.22l.93-9.12s1.85-4.37,1.85-5.71V110.6c0-.33,0-.65,0-1,.21-2.2,1.27-10.5,2.23-12L992,96.06s-3.68,11.77-10.16,10.4-7.87-10.88-7.87-10.88l-6.93,2S970.48,108.48,968.93,111.37Z"/><path class="cls-81" d="M972.12,129.6h21.22s12.91,16.2,18.68,34.47,5.21,19.63,5.21,19.63-15.51,7.83-28.56,5-31,3.28-39.64-5.33C949,183.32,961.86,139.86,972.12,129.6Z"/><path class="cls-82" d="M1002,188.62a61,61,0,0,0,11.63-3.36c-3.31-11.62-15.87-48.84-20.32-51.34C993.34,133.92,1000.22,171.47,1002,188.62Z"/><path class="cls-82" d="M989,132.69s11.13,43.67,4.33,47.37S989,132.69,989,132.69Z"/><path class="cls-82" d="M955.35,187c5.16,1.55,11.54,1.23,18,1-.43-20.55,4.38-56.49,4.38-56.49C967,137.5,958.89,170,955.35,187Z"/><path class="cls-82" d="M982.83,132.69s-6,35.84-1.64,35.84S982.83,132.69,982.83,132.69Z"/><path class="cls-82" d="M978.54,127.29c-5.39-2.68-6.93-21.92-10-30.13L967,97.6s3.47,10.88,1.92,13.77c0,0,.1,4.53.62,5.87l1.44,3.81,1.13,8.55h21.22l.25-2.49C991.16,128.07,983.26,129.64,978.54,127.29Z"/><path class="cls-83" d="M982.7,130.58c-6.13,0-10.07-.46-11-.84l.13-1.09c.7.29,4.73.86,10.86.86a59.64,59.64,0,0,0,10.92-.88l0,1.1A59.41,59.41,0,0,1,982.7,130.58Z"/><path class="cls-84" d="M984.31,130a1,1,0,0,1-.14.53h-1.68a18.86,18.86,0,0,1-5.2-.72.52.52,0,0,1-.32-.61h0a.52.52,0,0,1,.66-.37,19.84,19.84,0,0,0,4.87.62h1.66A1,1,0,0,1,984.31,130Z"/><path class="cls-84" d="M984.06,130.57h0a22.88,22.88,0,0,1-6.77-.72.52.52,0,0,1,.18-1,.41.41,0,0,1,.16,0,24.2,24.2,0,0,0,6.41.63A.68.68,0,0,1,984.06,130.57Z"/><path class="cls-85" d="M984.53,130.56a2.19,2.19,0,0,1-3.38,0h.48a1.79,1.79,0,0,0,1.2.42,1.76,1.76,0,0,0,1.23-.43c1-1-1.22-2.07-2.37-1.11l-.49,0a2,2,0,0,1,1.63-.7C984.18,128.73,985,129.72,984.53,130.56Z"/><path class="cls-86" d="M984.31,130a.13.13,0,0,1-.13.14.14.14,0,0,1,0-.28A.13.13,0,0,1,984.31,130Z"/><path class="cls-87" d="M984.44,130.18h-.25a.14.14,0,0,1-.14-.14h0a.14.14,0,0,1,.14-.13h.25a.13.13,0,0,1,.13.13h0A.13.13,0,0,1,984.44,130.18Z"/><path class="cls-88" d="M984.57,130a.14.14,0,0,1-.13.1h-.36a.12.12,0,0,0,.11.07h.25a.13.13,0,0,0,.13-.14Z"/><path class="cls-89" d="M981.89,129.1a2.17,2.17,0,0,1,2.4.3.09.09,0,0,1-.13.13h0A2.06,2.06,0,0,0,981.89,129.1Z"/><path class="cls-89" d="M981.9,131.11a2.15,2.15,0,0,0,2.39-.33.09.09,0,1,0-.12-.12h0A2.08,2.08,0,0,1,981.9,131.11Z"/><path class="cls-90" d="M979.12,108.64a4.4,4.4,0,0,0-3.36,6.31l.06.11c2.06,4,14.74,6.64,17.52,2.43S997.37,106.2,979.12,108.64Z"/><path class="cls-91" d="M1007.43,76s-12.29.81-28.65,3S948.43,76.69,954.14,73a3.54,3.54,0,0,1,1-.36C959.22,71.78,1007.43,76,1007.43,76Z"/><path class="cls-92" d="M991.17,55.27c-1.32,0-7.82-.4-10.77,2.54s-1.72,7.32-7.61,9.14-17.69,5.67-17.69,5.67a53.62,53.62,0,0,1,13.62.84c8.13,1.42,33.93,10.86,41.65,10.86s13.41-.61,15.24-4.06c0,0-16-6-21.43-8.65,0,0-1.12-1.2-1.12-4.35s.91-4.88-2.69-8.48S991.17,55.27,991.17,55.27Z"/><path class="cls-93" d="M986.64,56.84s-5.31-.69-6.5,2.56-.88,3.27,2.27,4.68,8.17.7,8.89-2.35S988,56.84,986.64,56.84Z"/><path class="cls-94" d="M955.1,72.62a54.09,54.09,0,0,1,13.71.62c9.91,1.82,34.91,11,42,10.83,3.88,0,10.25,0,13.29-2.15a5.52,5.52,0,0,0,1.53-1.66c-1.41,2.7-4.9,3.5-7.95,3.92a49.61,49.61,0,0,1-9.19.28l-1.14-.16c-8.48-1.14-31.2-9.09-38.6-10.61A60.19,60.19,0,0,0,955.1,72.62Z"/><path class="cls-95" d="M1003.1,71.48l.94,0a5.62,5.62,0,0,1-.79-2.09,46.51,46.51,0,0,1-8.73-.29c-7.37-1.16-10.63-3.69-17.37-5.22a6.65,6.65,0,0,1-1.7,1.84C985.75,67.68,988.56,72.19,1003.1,71.48Z"/><path class="cls-96" d="M1003.25,69.34a56.27,56.27,0,0,1-5.67,0,5.43,5.43,0,0,1-1.21,2.06,49.06,49.06,0,0,0,6.73.3c.34,0,.78-.08,1.08-.1A6.37,6.37,0,0,1,1003.25,69.34Z"/><path class="cls-97" d="M1025.61,80.26s-16-6-21.43-8.65c0,0-1.12-1.2-1.12-4.35s.91-4.88-2.69-8.48-9.2-3.51-9.2-3.51H991c2.44,2.56,5,5.7,6,8.56a8,8,0,0,1-2.75,9.55s11.43,5.09,14.35,8a8.35,8.35,0,0,1,1.85,2.92C1018.15,84.32,1023.79,83.7,1025.61,80.26Z"/><path class="cls-93" d="M967.86,69.8a14.07,14.07,0,0,1,7.59-.92c3.66.8,10.53,3.25,8.56,5.22S965.08,72,967.86,69.8Z"/><path class="cls-98" d="M995.25,70.09c.44-3.23.27-9-1.66-11.25a2.12,2.12,0,0,0-3.66.93c-1,3,3,7.9,5.27,10C995.21,69.87,995.23,70,995.25,70.09Zm-3.73-10.25c.41-.37.65-.49,1-.05,1.47,1.55,2.35,7.81,2.65,9.91C993.87,67.55,990,61.63,991.52,59.84Z"/><path class="cls-98" d="M1005.88,66.9c2.67-2.74-1-4.61-1.06-4.65-3.93-2-7.33,3.63-8.45,7.55,2.25-3.52,5.76-8.69,8.58-5.7,1.38,1.32-.81,2.65-2.53,3.49a45.62,45.62,0,0,1-6,2.21,21.34,21.34,0,0,0,6.49-1.17A8.5,8.5,0,0,0,1005.88,66.9Z"/><path class="cls-98" d="M997,76.72c-1.67-1.29-1.75-4.07-1.7-6.16a5.36,5.36,0,0,0-.21,1.6c.18,5.89,3.18,6.5,8.58,4.39l-.5-1C1001.58,76.58,998.56,77.8,997,76.72Z"/><path class="cls-98" d="M1006.17,70.53l-.91.57c1.19,1.89.45,2.82.44,2.86a2.19,2.19,0,0,1-.74.64c-2,1.14-7.1-2.7-8.87-4.16h0c1.93,1.83,6.8,6,9.21,4.81a2.61,2.61,0,0,0,1.09-.84S1007.57,73,1006.17,70.53Z"/><path class="cls-98" d="M997.13,69.83a1.3,1.3,0,1,1-1.29-1.17A1.23,1.23,0,0,1,997.13,69.83Z"/></g></g></g></svg>