<svg xmlns="http://www.w3.org/2000/svg" viewBox="0 0 1938.11 898.98"><defs><style>.cls-1{fill:#f7df52;opacity:0.25;}.cls-2{fill:#008d6a;}.cls-24,.cls-3{fill:#afcdfb;}.cls-4{fill:#f8fcff;}.cls-5{fill:#283250;}.cls-6{fill:#6b2ba7;}.cls-7{fill:#9e69ce;}.cls-8{fill:#a40707;}.cls-9{fill:#14a884;}.cls-10{fill:#e49963;}.cls-11{fill:#eb3d3f;}.cls-12{fill:#d68d5d;}.cls-13{fill:#ab7041;}.cls-14{fill:#e78b0d;}.cls-15{fill:#9e6138;}.cls-16{fill:#9c5f33;}.cls-17{fill:#ffbc60;}.cls-18{fill:#4a1587;}.cls-19,.cls-21{fill:#82b378;}.cls-20{fill:#a8d29f;}.cls-21{opacity:0.5;}.cls-22{fill:#fff;}.cls-23{fill:#b5453c;}.cls-24{opacity:0.2;}</style></defs><title>Asset 5</title><g id="Layer_2" data-name="Layer 2"><g id="_Layer_" data-name="&lt;Layer&gt;"><path class="cls-1" d="M1643.9,401.44c-293.67,15.1-257.45-626-765.94-317.31-110.42,67-356.16-73.73-454.34,219.51-23.35,69.73-198.68,74.59-312,130.51C-66.11,521.87-15.92,896.18,152,897.66s1401.54-2.94,1401.54-2.94,190.48-4.48,271.87-118.63C1972.86,569.29,1906.41,387.94,1643.9,401.44Z"/><polygon class="cls-2" points="1581.72 0 1412.97 55.81 1446.85 84.04 1300.83 236.9 1171.77 126.09 820.81 437.21 876.24 499.74 1172.64 236.99 1306.52 351.93 1511.19 137.67 1547.75 168.14 1581.72 0"/><path class="cls-3" d="M1018,122h206.28s38.66-2.89,23.07,325.5H1032.85V189.89S1034.09,138.2,1018,122Z"/><path class="cls-4" d="M1019.38,122h206.28s38.66-2.89,23.07,325.5H1034.24V189.89S1035.49,138.2,1019.38,122Z"/><path class="cls-3" d="M1150.27,356.84a27.16,27.16,0,1,1,27.16-27.16A27.19,27.19,0,0,1,1150.27,356.84Zm0-51.07a23.92,23.92,0,1,0,23.91,23.91A23.94,23.94,0,0,0,1150.27,305.77Z"/><path class="cls-3" d="M1057,154.53H1225.7a3.45,3.45,0,0,0,0-6.89H1057a3.45,3.45,0,0,0,0,6.89Z"/><rect class="cls-3" x="1056.03" y="186.91" width="122.81" height="4.9" rx="2.06"/><path class="cls-3" d="M1226.69,184.46h-10.06a2.45,2.45,0,0,0,0,4.9h10.06a2.45,2.45,0,1,0,0-4.9Z"/><rect class="cls-3" x="1056.03" y="206.1" width="122.81" height="4.91" rx="2.06"/><path class="cls-3" d="M1226.69,203.65h-10.06a2.45,2.45,0,0,0,0,4.9h10.06a2.45,2.45,0,1,0,0-4.9Z"/><rect class="cls-3" x="1056.03" y="221.38" width="122.81" height="4.9" rx="2.06"/><path class="cls-3" d="M1226.69,218.92h-10.06a2.46,2.46,0,0,0,0,4.91h10.06a2.46,2.46,0,0,0,0-4.91Z"/><rect class="cls-3" x="1056.03" y="238.81" width="122.81" height="4.9" rx="2.06"/><path class="cls-3" d="M1226.69,236.35h-10.06a2.46,2.46,0,0,0,0,4.91h10.06a2.46,2.46,0,0,0,0-4.91Z"/><rect class="cls-3" x="1056.03" y="256.45" width="122.81" height="4.9" rx="2.06"/><path class="cls-3" d="M1226.69,254h-10.06a2.45,2.45,0,0,0,0,4.9h10.06a2.45,2.45,0,1,0,0-4.9Z"/><rect class="cls-3" x="1056.03" y="274.09" width="122.81" height="4.91" rx="2.06"/><path class="cls-3" d="M1226.69,271.64h-10.06a2.45,2.45,0,0,0,0,4.9h10.06a2.45,2.45,0,1,0,0-4.9Z"/><path class="cls-3" d="M1225.7,159H1057a3.45,3.45,0,0,0,0,6.89H1225.7a3.45,3.45,0,0,0,0-6.89Z"/><path class="cls-3" d="M1148.33,327s-3.88-1.62-13-2.23c0,0,13.33,8.92,15,15.81,0,0,7.73-23.91,23.73-37.7C1174,302.89,1154.63,311.51,1148.33,327Z"/><path class="cls-5" d="M1936.22,899H15.31a1.89,1.89,0,0,1-1.88-1.88h0a1.89,1.89,0,0,1,1.88-1.89H1936.22a1.89,1.89,0,0,1,1.89,1.89h0A1.89,1.89,0,0,1,1936.22,899Z"/><path class="cls-6" d="M1076.17,861.54v24.3a9.24,9.24,0,0,1-1.61,5.23,9.54,9.54,0,0,1-4.39,3.51,10,10,0,0,1-1.72.48,9,9,0,0,1-1.65.15h-387a9.41,9.41,0,0,1-9.36-8.89c0-.16,0-.32,0-.48v-24.3c0-.16,0-.32,0-.48a9.4,9.4,0,0,1,9.36-8.88h387a9,9,0,0,1,1.65.15,8.44,8.44,0,0,1,1.72.48,9.46,9.46,0,0,1,4.39,3.5A9.27,9.27,0,0,1,1076.17,861.54Z"/><path class="cls-7" d="M886.1,895.21H678.75c-4.46,0-8.13-4-8.36-8.89,0-.16,0-.32,0-.48v-24.3c0-.16,0-.32,0-.48.23-4.93,3.9-8.88,8.36-8.88H860.64C863.54,864.85,870.31,882.36,886.1,895.21Z"/><rect class="cls-7" x="1024.67" y="852.18" width="4.4" height="43.03"/><rect class="cls-7" x="1009.78" y="852.18" width="4.4" height="43.03"/><rect class="cls-7" x="991.92" y="852.18" width="4.4" height="43.03"/><rect class="cls-7" x="964.55" y="852.18" width="4.4" height="43.03"/><rect class="cls-7" x="935.61" y="852.18" width="4.4" height="43.03"/><rect class="cls-7" x="891.24" y="852.18" width="4.4" height="43.03"/><rect class="cls-7" x="849.69" y="852.18" width="4.4" height="43.03"/><rect class="cls-7" x="812.59" y="852.18" width="4.4" height="43.03"/><rect class="cls-7" x="1038.84" y="852.18" width="4.4" height="43.03"/><rect class="cls-7" x="1048.21" y="852.18" width="4.4" height="43.03"/><rect class="cls-7" x="1057.25" y="852.18" width="4.4" height="43.03"/><path class="cls-7" d="M1068.45,852.33v42.73a9,9,0,0,1-1.65.15h-2.75v-43h2.75A9,9,0,0,1,1068.45,852.33Z"/><path class="cls-7" d="M1074.56,856.31v34.76a9.54,9.54,0,0,1-4.39,3.51V852.81A9.46,9.46,0,0,1,1074.56,856.31Z"/><path class="cls-6" d="M1034.78,818.51v24.3a9.29,9.29,0,0,1-1.6,5.23,9.45,9.45,0,0,1-4.4,3.51,9.84,9.84,0,0,1-1.71.48,9,9,0,0,1-1.65.15H638.37A9.41,9.41,0,0,1,629,843.3c0-.17,0-.33,0-.49v-24.3c0-.16,0-.32,0-.48a9.4,9.4,0,0,1,9.36-8.88h387.05c.25,0,.5,0,.74,0l.31,0,.35,0,.25,0a8.35,8.35,0,0,1,1.71.48l.25.1.23.1.48.23.26.15.24.14c.15.09.3.18.44.28a4.29,4.29,0,0,1,.48.36c.13.09.25.19.37.29s0,0,0,0l.24.22a8.75,8.75,0,0,1,.67.69l.19.22.18.23c.12.15.24.32.35.48A9.28,9.28,0,0,1,1034.78,818.51Z"/><path class="cls-7" d="M844.72,852.18H637.36c-4.45,0-8.12-4-8.35-8.88,0-.17,0-.33,0-.49v-24.3c0-.16,0-.32,0-.48.23-4.93,3.9-8.88,8.35-8.88H819.25c.08.35.17.7.25,1.06C822.54,822.78,829.36,839.69,844.72,852.18Z"/><rect class="cls-7" x="983.29" y="809.15" width="4.4" height="43.03"/><rect class="cls-7" x="968.39" y="809.15" width="4.4" height="43.03"/><rect class="cls-7" x="950.54" y="809.15" width="4.4" height="43.03"/><rect class="cls-7" x="923.17" y="809.15" width="4.4" height="43.03"/><rect class="cls-7" x="894.22" y="809.15" width="4.4" height="43.03"/><rect class="cls-7" x="849.85" y="809.15" width="4.4" height="43.03"/><rect class="cls-7" x="808.31" y="809.15" width="4.4" height="43.03"/><rect class="cls-7" x="771.21" y="809.15" width="4.4" height="43.03"/><rect class="cls-7" x="997.46" y="809.15" width="4.4" height="43.03"/><rect class="cls-7" x="1006.82" y="809.15" width="4.4" height="43.03"/><rect class="cls-7" x="1015.87" y="809.15" width="4.4" height="43.03"/><path class="cls-7" d="M1027.07,809.3V852a9,9,0,0,1-1.65.15h-2.75v-43h2.75A9,9,0,0,1,1027.07,809.3Z"/><path class="cls-7" d="M1033.18,813.29V848a9.45,9.45,0,0,1-4.4,3.51V809.78A9.39,9.39,0,0,1,1033.18,813.29Z"/><path class="cls-6" d="M1054.78,776.55v24.3a9.28,9.28,0,0,1-1.6,5.22,9.45,9.45,0,0,1-4.4,3.51,8.35,8.35,0,0,1-1.71.48,9,9,0,0,1-1.65.15H658.36a9.22,9.22,0,0,1-4.31-1.06,9.41,9.41,0,0,1-5-7.4l0-.42c0-.16,0-.32,0-.48v-24.3c0-.16,0-.32,0-.48a9.4,9.4,0,0,1,9.35-8.89h387.06a9,9,0,0,1,1.65.15,9.84,9.84,0,0,1,1.71.48,9.45,9.45,0,0,1,4.4,3.51A9.29,9.29,0,0,1,1054.78,776.55Z"/><path class="cls-7" d="M864.72,810.21H657.36a7.52,7.52,0,0,1-3.85-1.06,9.48,9.48,0,0,1-4.47-7.4l0-.42c0-.16,0-.32,0-.48v-24.3c0-.16,0-.32,0-.48.23-4.93,3.9-8.89,8.35-8.89H839.25c2.83,12.32,9.31,29.24,24.19,42C863.86,809.51,864.29,809.86,864.72,810.21Z"/><rect class="cls-7" x="1003.29" y="767.18" width="4.4" height="43.03"/><rect class="cls-7" x="988.39" y="767.18" width="4.4" height="43.03"/><rect class="cls-7" x="970.54" y="767.18" width="4.4" height="43.03"/><rect class="cls-7" x="943.17" y="767.18" width="4.4" height="43.03"/><rect class="cls-7" x="914.22" y="767.18" width="4.4" height="43.03"/><rect class="cls-7" x="869.85" y="767.18" width="4.4" height="43.03"/><rect class="cls-7" x="828.31" y="767.18" width="4.4" height="43.03"/><rect class="cls-7" x="791.21" y="767.18" width="4.4" height="43.03"/><rect class="cls-7" x="1017.46" y="767.18" width="4.4" height="43.03"/><rect class="cls-7" x="1026.82" y="767.18" width="4.4" height="43.03"/><rect class="cls-7" x="1035.87" y="767.18" width="4.4" height="43.03"/><path class="cls-7" d="M1047.07,767.33v42.73a9,9,0,0,1-1.65.15h-2.75v-43h2.75A9,9,0,0,1,1047.07,767.33Z"/><path class="cls-7" d="M1053.18,771.32v34.75a9.45,9.45,0,0,1-4.4,3.51V767.81A9.45,9.45,0,0,1,1053.18,771.32Z"/><path class="cls-6" d="M1064.05,733.52v24.3a9.34,9.34,0,0,1-1.6,5.23,9.43,9.43,0,0,1-4.4,3.5,8.35,8.35,0,0,1-1.71.48,9,9,0,0,1-1.65.15H667.64a9.4,9.4,0,0,1-9.36-8.88c0-.16,0-.32,0-.48v-24.3c0-.16,0-.32,0-.48a9.4,9.4,0,0,1,8.25-8.82,8.07,8.07,0,0,1,1.11-.07h387.05a10,10,0,0,1,1.65.15,9.05,9.05,0,0,1,1.71.49,9.43,9.43,0,0,1,4.4,3.5A9.31,9.31,0,0,1,1064.05,733.52Z"/><path class="cls-7" d="M874,767.18H666.63c-4.45,0-8.12-3.95-8.35-8.88,0-.16,0-.32,0-.48v-24.3c0-.16,0-.32,0-.48.21-4.56,3.37-8.29,7.36-8.82a6.41,6.41,0,0,1,1-.07h181.9s0,.05,0,.07C851.46,736.88,858.23,754.36,874,767.18Z"/><rect class="cls-7" x="1012.56" y="724.15" width="4.4" height="43.03"/><rect class="cls-7" x="997.67" y="724.15" width="4.4" height="43.03"/><rect class="cls-7" x="979.81" y="724.15" width="4.4" height="43.03"/><rect class="cls-7" x="952.44" y="724.15" width="4.4" height="43.03"/><rect class="cls-7" x="923.49" y="724.15" width="4.4" height="43.03"/><rect class="cls-7" x="879.12" y="724.15" width="4.4" height="43.03"/><rect class="cls-7" x="837.58" y="724.15" width="4.4" height="43.03"/><rect class="cls-7" x="800.48" y="724.15" width="4.4" height="43.03"/><rect class="cls-7" x="1026.73" y="724.15" width="4.4" height="43.03"/><rect class="cls-7" x="1036.09" y="724.15" width="4.4" height="43.03"/><rect class="cls-7" x="1045.14" y="724.15" width="4.4" height="43.03"/><path class="cls-7" d="M1056.34,724.3V767a9,9,0,0,1-1.65.15h-2.75v-43h2.75A9,9,0,0,1,1056.34,724.3Z"/><path class="cls-7" d="M1062.45,728.29V763a9.45,9.45,0,0,1-4.4,3.51V724.78A9.45,9.45,0,0,1,1062.45,728.29Z"/><path class="cls-6" d="M1035.6,690.56v24.3a9.34,9.34,0,0,1-1.61,5.23,9.46,9.46,0,0,1-4.39,3.5,8.44,8.44,0,0,1-1.72.48l-.54.08-.31,0c-.1,0-.2,0-.3,0H639.18a9.39,9.39,0,0,1-9.35-8.88c0-.16,0-.32,0-.48v-24.3c0-.16,0-.32,0-.48s0-.27,0-.4a9.43,9.43,0,0,1,7-8.2l.29-.07a9.62,9.62,0,0,1,2-.22h387.05c.29,0,.56,0,.84,0l.37,0h0l.43.07a10,10,0,0,1,1.72.48,9.48,9.48,0,0,1,4.39,3.51A9.3,9.3,0,0,1,1035.6,690.56Z"/><path class="cls-7" d="M845.53,724.22H638.18c-4.46,0-8.13-4-8.35-8.88,0-.16,0-.32,0-.48v-24.3c0-.16,0-.32,0-.48s0-.27,0-.4a9.14,9.14,0,0,1,6.49-8.26l.36-.08a7.21,7.21,0,0,1,1.48-.15H820.07c0,.11,0,.2.07.31,2.94,12.62,9.71,29.92,25.31,42.65Z"/><rect class="cls-7" x="984.1" y="681.19" width="4.4" height="43.03"/><rect class="cls-7" x="969.21" y="681.19" width="4.4" height="43.03"/><rect class="cls-7" x="951.35" y="681.19" width="4.4" height="43.03"/><rect class="cls-7" x="923.98" y="681.19" width="4.4" height="43.03"/><rect class="cls-7" x="895.04" y="681.19" width="4.4" height="43.03"/><rect class="cls-7" x="850.67" y="681.19" width="4.4" height="43.03"/><rect class="cls-7" x="809.12" y="681.19" width="4.4" height="43.03"/><rect class="cls-7" x="772.02" y="681.19" width="4.4" height="43.03"/><rect class="cls-7" x="998.27" y="681.19" width="4.4" height="43.03"/><rect class="cls-7" x="1007.64" y="681.19" width="4.4" height="43.03"/><rect class="cls-7" x="1016.68" y="681.19" width="4.4" height="43.03"/><path class="cls-7" d="M1027.88,681.34v42.73a9,9,0,0,1-1.65.15h-2.75v-43h2.75A9,9,0,0,1,1027.88,681.34Z"/><path class="cls-7" d="M1034,685.33v34.75a9.48,9.48,0,0,1-4.39,3.51V681.82A9.48,9.48,0,0,1,1034,685.33Z"/><path class="cls-6" d="M1034.78,647.83v24.3a9.29,9.29,0,0,1-1.6,5.23,9.51,9.51,0,0,1-4.4,3.51,8.85,8.85,0,0,1-1.33.4h0l-.37.08a9,9,0,0,1-1.65.15H638.37a8,8,0,0,1-1.21-.09,3.17,3.17,0,0,1-.46-.07,9.4,9.4,0,0,1-7.69-8.73c0-.16,0-.32,0-.48v-24.3c0-.16,0-.32,0-.48a9.4,9.4,0,0,1,9.36-8.88h387.05c.25,0,.5,0,.74,0l.31,0,.35.05.25,0a8.35,8.35,0,0,1,1.71.48l.25.1.23.1.48.23.5.29c.15.09.3.18.44.28a4.29,4.29,0,0,1,.48.36c.13.09.25.19.37.29l0,0,.24.21c.23.22.46.46.67.7l.19.22.18.23c.12.15.24.31.35.47A9.34,9.34,0,0,1,1034.78,647.83Z"/><path class="cls-7" d="M844.72,681.5H637.36l-.49,0a4.52,4.52,0,0,1-.53-.06c-4-.54-7.12-4.26-7.33-8.81,0-.16,0-.32,0-.48v-24.3c0-.16,0-.32,0-.48.23-4.93,3.9-8.88,8.35-8.88H819.25c.08.35.17.7.25,1.06,3,12.47,9.75,29.2,24.85,41.66Z"/><rect class="cls-7" x="983.29" y="638.47" width="4.4" height="43.03"/><rect class="cls-7" x="968.39" y="638.47" width="4.4" height="43.03"/><rect class="cls-7" x="950.54" y="638.47" width="4.4" height="43.03"/><rect class="cls-7" x="923.17" y="638.47" width="4.4" height="43.03"/><rect class="cls-7" x="894.22" y="638.47" width="4.4" height="43.03"/><rect class="cls-7" x="849.85" y="638.47" width="4.4" height="43.03"/><rect class="cls-7" x="808.31" y="638.47" width="4.4" height="43.03"/><rect class="cls-7" x="771.21" y="638.47" width="4.4" height="43.03"/><rect class="cls-7" x="997.46" y="638.47" width="4.4" height="43.03"/><rect class="cls-7" x="1006.82" y="638.47" width="4.4" height="43.03"/><rect class="cls-7" x="1015.87" y="638.47" width="4.4" height="43.03"/><path class="cls-7" d="M1027.07,638.62v42.73a9,9,0,0,1-1.65.15h-2.75v-43h2.75A9,9,0,0,1,1027.07,638.62Z"/><path class="cls-7" d="M1033.18,642.61v34.75a9.45,9.45,0,0,1-4.4,3.51V639.1A9.45,9.45,0,0,1,1033.18,642.61Z"/><path class="cls-6" d="M1054.78,605.87v24.3a9.28,9.28,0,0,1-1.6,5.22,9.39,9.39,0,0,1-4.4,3.51,8.35,8.35,0,0,1-1.71.48,9,9,0,0,1-1.65.15H658.36a9.22,9.22,0,0,1-4.31-1.06,9.41,9.41,0,0,1-5-7.4l0-.42c0-.16,0-.32,0-.48v-24.3c0-.16,0-.32,0-.49a9.39,9.39,0,0,1,9.35-8.88h387.06a9.39,9.39,0,0,1,3.36.63,9.45,9.45,0,0,1,4.4,3.51A9.29,9.29,0,0,1,1054.78,605.87Z"/><path class="cls-7" d="M864.72,639.53H657.36a7.52,7.52,0,0,1-3.85-1.06,9.48,9.48,0,0,1-4.47-7.4l0-.42c0-.16,0-.32,0-.48v-24.3c0-.16,0-.32,0-.49.23-4.92,3.9-8.88,8.35-8.88H839.25c2.83,12.32,9.31,29.23,24.19,42C863.86,638.83,864.29,639.18,864.72,639.53Z"/><rect class="cls-7" x="1003.29" y="596.5" width="4.4" height="43.03"/><rect class="cls-7" x="988.39" y="596.5" width="4.4" height="43.03"/><rect class="cls-7" x="970.54" y="596.5" width="4.4" height="43.03"/><rect class="cls-7" x="943.17" y="596.5" width="4.4" height="43.03"/><rect class="cls-7" x="914.22" y="596.5" width="4.4" height="43.03"/><rect class="cls-7" x="869.85" y="596.5" width="4.4" height="43.03"/><rect class="cls-7" x="828.31" y="596.5" width="4.4" height="43.03"/><rect class="cls-7" x="791.21" y="596.5" width="4.4" height="43.03"/><rect class="cls-7" x="1017.46" y="596.5" width="4.4" height="43.03"/><rect class="cls-7" x="1026.82" y="596.5" width="4.4" height="43.03"/><rect class="cls-7" x="1035.87" y="596.5" width="4.4" height="43.03"/><path class="cls-7" d="M1047.07,596.65v42.73a9,9,0,0,1-1.65.15h-2.75v-43h2.75A9,9,0,0,1,1047.07,596.65Z"/><path class="cls-7" d="M1053.18,600.64v34.75a9.39,9.39,0,0,1-4.4,3.51V597.13A9.45,9.45,0,0,1,1053.18,600.64Z"/><path class="cls-6" d="M1086.41,562.84v24.3a9.39,9.39,0,0,1-6,8.73,8.35,8.35,0,0,1-1.71.48,9.07,9.07,0,0,1-1.66.15H690a9.39,9.39,0,0,1-9.35-8.88c0-.16,0-.32,0-.48v-24.3c0-.16,0-.32,0-.48a9.4,9.4,0,0,1,8.25-8.82,8,8,0,0,1,1.1-.07h387a9.07,9.07,0,0,1,1.66.15,9.84,9.84,0,0,1,1.71.48,9.44,9.44,0,0,1,4.39,3.51A9.22,9.22,0,0,1,1086.41,562.84Z"/><path class="cls-7" d="M896.35,596.5H689c-4.45,0-8.12-4-8.35-8.88,0-.16,0-.32,0-.48v-24.3c0-.16,0-.32,0-.48.21-4.56,3.36-8.29,7.36-8.82a6.41,6.41,0,0,1,1-.07H870.88s0,0,0,.07C873.81,566.2,880.58,583.68,896.35,596.5Z"/><rect class="cls-7" x="1034.92" y="553.47" width="4.4" height="43.03"/><rect class="cls-7" x="1020.03" y="553.47" width="4.4" height="43.03"/><rect class="cls-7" x="1002.17" y="553.47" width="4.4" height="43.03"/><rect class="cls-7" x="974.8" y="553.47" width="4.4" height="43.03"/><rect class="cls-7" x="945.85" y="553.47" width="4.4" height="43.03"/><rect class="cls-7" x="901.48" y="553.47" width="4.4" height="43.03"/><rect class="cls-7" x="859.94" y="553.47" width="4.4" height="43.03"/><rect class="cls-7" x="822.84" y="553.47" width="4.4" height="43.03"/><rect class="cls-7" x="1049.09" y="553.47" width="4.4" height="43.03"/><rect class="cls-7" x="1058.45" y="553.47" width="4.4" height="43.03"/><rect class="cls-7" x="1067.5" y="553.47" width="4.4" height="43.03"/><path class="cls-7" d="M1078.7,553.62v42.73a9,9,0,0,1-1.65.15h-2.75v-43h2.75A9,9,0,0,1,1078.7,553.62Z"/><path class="cls-7" d="M1084.81,557.61v34.76a9.49,9.49,0,0,1-4.4,3.5V554.1A9.51,9.51,0,0,1,1084.81,557.61Z"/><path class="cls-6" d="M1035.6,519.88v24.3a9.29,9.29,0,0,1-1.61,5.22,9.48,9.48,0,0,1-4.39,3.51,8.44,8.44,0,0,1-1.72.48l-.54.08-.44,0-.21,0H639.18a9.39,9.39,0,0,1-9.35-8.88c0-.16,0-.32,0-.48v-24.3c0-.17,0-.33,0-.49a9.39,9.39,0,0,1,9.35-8.88h387.05l.5,0a8.8,8.8,0,0,1,1.15.13,9.13,9.13,0,0,1,1.72.48c.27.11.55.23.81.36l.48.26a.1.1,0,0,1,0,0l.47.29.08,0c.14.1.29.2.42.31a7.94,7.94,0,0,1,.93.81l.27.27,0,.06a1.29,1.29,0,0,1,.16.17l0,0c.1.11.19.22.28.34s.25.33.37.51A9.3,9.3,0,0,1,1035.6,519.88Z"/><path class="cls-7" d="M845.53,553.54H638.18c-4.46,0-8.13-3.95-8.35-8.88,0-.16,0-.32,0-.48v-24.3c0-.17,0-.33,0-.49.22-4.92,3.89-8.88,8.35-8.88H820.07q.1.5.24,1c3,12.56,9.82,29.47,25.14,42Z"/><rect class="cls-7" x="984.1" y="510.51" width="4.4" height="43.03"/><rect class="cls-7" x="969.21" y="510.51" width="4.4" height="43.03"/><rect class="cls-7" x="951.35" y="510.51" width="4.4" height="43.03"/><rect class="cls-7" x="923.98" y="510.51" width="4.4" height="43.03"/><rect class="cls-7" x="895.04" y="510.51" width="4.4" height="43.03"/><rect class="cls-7" x="850.67" y="510.51" width="4.4" height="43.03"/><rect class="cls-7" x="809.12" y="510.51" width="4.4" height="43.03"/><rect class="cls-7" x="772.02" y="510.51" width="4.4" height="43.03"/><rect class="cls-7" x="998.27" y="510.51" width="4.4" height="43.03"/><rect class="cls-7" x="1007.64" y="510.51" width="4.4" height="43.03"/><rect class="cls-7" x="1016.68" y="510.51" width="4.4" height="43.03"/><path class="cls-7" d="M1027.88,510.66v42.73a9,9,0,0,1-1.65.15h-2.75v-43h2.75A9,9,0,0,1,1027.88,510.66Z"/><path class="cls-7" d="M1034,514.65V549.4a9.48,9.48,0,0,1-4.39,3.51V511.14A9.48,9.48,0,0,1,1034,514.65Z"/><path class="cls-6" d="M1064.05,477.84v24.3a9.31,9.31,0,0,1-1.6,5.23,9.43,9.43,0,0,1-4.4,3.5,9.05,9.05,0,0,1-1.71.49,10,10,0,0,1-1.65.14H667.64a9.21,9.21,0,0,1-4.19-1,9.38,9.38,0,0,1-5.14-7.51l0-.38c0-.16,0-.32,0-.48v-24.3c0-.16,0-.32,0-.48a9.41,9.41,0,0,1,8.25-8.82,10,10,0,0,1,1.11-.06h387.05a9,9,0,0,1,1.65.15,8.35,8.35,0,0,1,1.71.48,9.43,9.43,0,0,1,4.4,3.5A9.34,9.34,0,0,1,1064.05,477.84Z"/><path class="cls-7" d="M874,511.5H666.63a7.48,7.48,0,0,1-3.73-1,9.44,9.44,0,0,1-4.59-7.51l0-.38c0-.16,0-.32,0-.48v-24.3c0-.16,0-.32,0-.48.21-4.56,3.37-8.28,7.36-8.82a8,8,0,0,1,1-.06h181.9s0,0,0,.06c2.84,12.34,9.34,29.25,24.26,42C873.19,510.85,873.59,511.18,874,511.5Z"/><rect class="cls-7" x="1012.56" y="468.48" width="4.4" height="43.03"/><rect class="cls-7" x="997.67" y="468.48" width="4.4" height="43.03"/><rect class="cls-7" x="979.81" y="468.48" width="4.4" height="43.03"/><rect class="cls-7" x="952.44" y="468.48" width="4.4" height="43.03"/><rect class="cls-7" x="923.49" y="468.48" width="4.4" height="43.03"/><rect class="cls-7" x="879.12" y="468.48" width="4.4" height="43.03"/><rect class="cls-7" x="837.58" y="468.48" width="4.4" height="43.03"/><rect class="cls-7" x="800.48" y="468.48" width="4.4" height="43.03"/><rect class="cls-7" x="1026.73" y="468.48" width="4.4" height="43.03"/><rect class="cls-7" x="1036.09" y="468.48" width="4.4" height="43.03"/><rect class="cls-7" x="1045.14" y="468.48" width="4.4" height="43.03"/><path class="cls-7" d="M1056.34,468.63v42.72a9,9,0,0,1-1.65.15h-2.75v-43h2.75A9,9,0,0,1,1056.34,468.63Z"/><path class="cls-7" d="M1062.45,472.61v34.76a9.43,9.43,0,0,1-4.4,3.5V469.11A9.43,9.43,0,0,1,1062.45,472.61Z"/><path class="cls-6" d="M1035.6,434.88v24.3a9.32,9.32,0,0,1-1.61,5.23,9.46,9.46,0,0,1-4.39,3.5,8.44,8.44,0,0,1-1.72.48l-.54.09-.31,0-.3,0H639.18a9.39,9.39,0,0,1-9.35-8.88c0-.16,0-.32,0-.48v-24.3c0-.16,0-.32,0-.48a9.4,9.4,0,0,1,9.35-8.89h387.05a9,9,0,0,1,1.65.16,8.44,8.44,0,0,1,1.72.48,9.46,9.46,0,0,1,4.39,3.5A9.32,9.32,0,0,1,1035.6,434.88Z"/><path class="cls-7" d="M845.53,468.54H638.18c-4.46,0-8.13-4-8.35-8.88,0-.16,0-.32,0-.48v-24.3c0-.16,0-.32,0-.48.22-4.93,3.89-8.89,8.35-8.89H820.07c2.9,12.65,9.65,30.13,25.38,43Z"/><rect class="cls-7" x="984.1" y="425.52" width="4.4" height="43.03"/><rect class="cls-7" x="969.21" y="425.52" width="4.4" height="43.03"/><rect class="cls-7" x="951.35" y="425.52" width="4.4" height="43.03"/><rect class="cls-7" x="923.98" y="425.52" width="4.4" height="43.03"/><rect class="cls-7" x="895.04" y="425.52" width="4.4" height="43.03"/><rect class="cls-7" x="850.67" y="425.52" width="4.4" height="43.03"/><rect class="cls-7" x="809.12" y="425.52" width="4.4" height="43.03"/><rect class="cls-7" x="772.02" y="425.51" width="4.4" height="43.03"/><rect class="cls-7" x="998.27" y="425.52" width="4.4" height="43.03"/><rect class="cls-7" x="1007.64" y="425.52" width="4.4" height="43.03"/><rect class="cls-7" x="1016.68" y="425.52" width="4.4" height="43.03"/><path class="cls-7" d="M1027.88,425.66v42.73a9,9,0,0,1-1.65.15h-2.75v-43h2.75A10,10,0,0,1,1027.88,425.66Z"/><path class="cls-7" d="M1034,429.65v34.76a9.46,9.46,0,0,1-4.39,3.5V426.15A9.46,9.46,0,0,1,1034,429.65Z"/><g id="man"><path class="cls-8" d="M216.88,866.21s-3.4,27.73,2,29c2.11.49,64.78-.14,64.78-.14s0-7.49-10.27-9.15-28.3-7.77-31.35-21.37S216.88,866.21,216.88,866.21Z"/><path class="cls-9" d="M278.91,722.79c0,23.64-27.32,148.48-27.32,148.48s-27.55,5-39.46-6.89c0,0,2.59-115.79,6.73-140.42.84-5-.49-12.35-3.08-21.29-10.2-35.25-39.9-95-33.09-130.48,8.54-44.44,68.9,3.43,68.9,3.43s2.64,11.93,6.28,29.08C265.93,642.74,278.91,706.49,278.91,722.79Z"/><path class="cls-2" d="M257.87,604.7l-42.09,98c-10.2-35.25-39.9-95-33.09-130.48,8.54-44.44,68.9,3.43,68.9,3.43S254.23,587.55,257.87,604.7Z"/><path class="cls-10" d="M352.15,529.79s13.59-21.43,19.14-21.68,19.34-5.45,21.11-2.64-8.5,9.6-12.94,13.09-7.34,12.54-14.84,12.86A33,33,0,0,1,352.15,529.79Z"/><path class="cls-8" d="M256.93,375.41s29,84.75,42.31,100.83,60.05,39.84,60.46,42c1,5-2.9,12.92-7.28,12.95-15.53.08-47-11.72-61.6-25.7C275.38,490.67,251,406.15,251,406.15Z"/><path class="cls-10" d="M391.53,476s16.57-.26,25.6-5.92,27.31-5.42,31-2.58,3.1,4.54-1.43,7.11S427,489.3,414.45,488.14s-27.33,2.73-27.33,2.73Z"/><path class="cls-8" d="M63.72,841.38s-11.37,10.54-9.15,18,12.48,12.48,13.87,21.64,6.94,14.15,11.93,14.15h23.81s3.68-6.44-5.2-8.39-12.23-12.7-11.67-22.69-.83-23.3-.83-23.3l-18.87-4.44Z"/><path class="cls-9" d="M252.68,549S181.09,687.09,141.13,758.68,88.7,850.24,88.7,850.24s-22.9-9.16-25-15.4c0,0,20.55-118.43,53.75-160.26,15.11-19,14.42-72.75,18.91-102.77,3-19.78,16.41-54.7,16.41-54.7Z"/><path class="cls-10" d="M281,345a57,57,0,0,1,10.14,18c-24.84-1.71-55.68-35.55-55.68-35.55s18-5,30.72-24.9c.64-1,1.27-2,1.87-3.12A71.29,71.29,0,0,0,273.25,288l7.37,12.91,12.25,21.48a159.59,159.59,0,0,1-8.48,16.8Q282.85,341.92,281,345Z"/><path class="cls-11" d="M298.71,398.84c-.77,12.07-4.41,30.36-9.35,50.65-1.92,7.86-4,16-6.25,24.23-3.6,13.33-7.35,26.74-11.21,39.36l-.15.45c-.28,1.28-.71,2.64-1.11,3.89-3.35,11.15-6.57,21.46-9.37,30.22-5.36,16.76-5.4,26.09-9.68,28-8.6,3.8-42.47-.28-62.76-9.08-17.14-7.3-43.27-29.31-43.13-40.39.15-12.84,17.39-51.51,28.81-96.66,14.1-55.16,45.36-99.2,71.44-108.28,2-.63,4,3.46,11.59,10.72,7,6.69,15.77,10.88,24.1,11.77l5,8.28C293.33,363.83,300,379.15,298.71,398.84Z"/><path class="cls-8" d="M289.36,449.49c-1.92,7.86-4,16-6.25,24.23-3.6,13.33-7.35,26.74-11.21,39.36l-.15.45c-.28,1.28-.71,2.64-1.11,3.89-3.35,11.15-6.57,21.46-9.37,30.22C207,478.76,237.8,396.26,237.8,396.26Z"/><path class="cls-11" d="M220.89,378.11S272.1,497,303.94,500.2c15.71,1.58,81.92-3.22,100.84-7.06,0,0,3.54-4.93-1.68-19.66,0,0-72.42-6.16-85.37-16.75C298.47,441,304.52,374.47,282,360.88S228,347.44,220.89,378.11Z"/><path class="cls-12" d="M292.87,322.38a159.59,159.59,0,0,1-8.48,16.8C269.17,328,266.57,310,266.17,302.59c-.12-2.09-.06-3.33-.06-3.33l1.93.21,12.58,1.43Z"/><path class="cls-10" d="M299.83,324.51s-38.89-8.27-33.36-32.41,4.23-41.46,29.29-37.2,27.76,14.57,27.87,23.08S310.09,326,299.83,324.51Z"/><path class="cls-8" d="M266.09,293.77s12.73-30.24,47.92-22.08c24.1,5.6,17.78-18.86,16.36-22.9,0,0-18.72-3.52-38.08-6.61C251.65,235.7,263.92,287.67,266.09,293.77Z"/></g><g id="man-2" data-name="man"><path class="cls-13" d="M1584.72,468.5s-16-4.3-23.38-12-19.57-5.37-23.86-3.52-6.58,9.55-1.38,9.32c7.86-.35,11,10.4,23.44,12.33s25.83,9.33,25.83,9.33Z"/><path class="cls-14" d="M1680,373.07s-18.36,107.41-48.5,118.15c-16.89,6-50.67-9.58-69.45-19.33l6-10.2s36,4.93,40.41,2.16c7.76-4.83,1.33-95.65,21.68-112.28S1668.67,343.7,1680,373.07Z"/><path class="cls-8" d="M1641.3,895.25h-64.8c.23-1.74,1.67-7.55,10.4-8.84,10.29-1.52,28.45-7.51,31.77-21.64s25.16,4.87,25.16,4.87S1646.1,892.27,1641.3,895.25Z"/><path class="cls-11" d="M1753.81,618.79c-10.81,22.05-36.43,52.75-45.87,76.55-2.24,5.62-3.57,10.86-3.59,15.5-.22,53.4-58.19,158.7-58.19,158.7C1640.64,873.11,1617,866,1617,866s2.74-23.4,16.28-104.24c7.47-44.6,20.06-111,29.85-161.59,2.52-13,4.86-25,6.87-35.29,4.35-22.19,7.2-36.51,7.2-36.51l22.48.38,60.7,1S1785.62,553.86,1753.81,618.79Z"/><path class="cls-8" d="M1753.81,618.79c-10.81,22.05-36.43,52.75-45.87,76.55-13.4-28.34-33.71-71.42-44.77-95.22,2.52-13,4.86-25,6.87-35.29,3.19-15.34,4.14-22.21,7.2-36.51l83.18,1.38S1785.62,553.86,1753.81,618.79Z"/><path class="cls-8" d="M1878.75,861.72c-2.53,7.39-13,12-14.75,21-1.24,6.34-4.4,10.58-7.9,12.48h-28.48c-.47-1.06-2.45-6.56,5.63-8,9-1.57,12.74-12.19,12.6-22.19,0-.24,0-.49,0-.73a181.09,181.09,0,0,1,1.8-22.52l19-3.66,3.18,4.45.5.7S1881.28,854.32,1878.75,861.72Z"/><path class="cls-11" d="M1743.17,750.41c11.41,20.71,95.56,116.89,95.56,116.89s26.52-9,31.24-25.07c0,0-49.77-81.78-72.4-116.63-6.47-10-10.07-162.3-33.14-190.06-28.91-34.8-81.26,31.22-81.26,31.22s16.38,53.28,21.47,70.06C1715.93,674,1735.31,736.13,1743.17,750.41Z"/><path class="cls-15" d="M1580.72,469.46s-16-4.31-23.39-12-19.56-5.37-23.85-3.52-6.59,9.55-1.38,9.32c7.86-.34,11,10.4,23.43,12.33s25.84,9.33,25.84,9.33Z"/><path class="cls-16" d="M1631.3,345c-8.35-13.86-11.88-22.63-11.88-22.63L1639,288c11.42,32.22,37.81,39.51,37.81,39.51S1646,361.33,1621.15,363A56.89,56.89,0,0,1,1631.3,345Z"/><path class="cls-13" d="M1612.45,324.51s38.89-8.27,33.36-32.41-4.23-41.46-29.29-37.2-27.76,14.57-27.87,23.08S1602.19,326,1612.45,324.51Z"/><path class="cls-8" d="M1646.19,293.77s-12.73-30.24-47.92-22.08c-24.1,5.6-17.78-18.86-16.36-22.9,0,0,18.72-3.52,38.09-6.61C1660.64,235.7,1648.36,287.67,1646.19,293.77Z"/><path class="cls-17" d="M1613.58,398.84c.76,12.07,4.4,30.36,9.35,50.65,1.92,7.86,4,16,6.24,24.23,3.6,13.33,7.35,26.74,11.22,39.36l.14.45c.28,1.28.72,2.64,1.11,3.89,3.35,11.15,6.57,21.46,9.37,30.22,5.36,16.76,5.4,26.09,9.68,28,8.6,3.8,42.47-.28,62.76-9.08,17.14-7.3,43.27-29.31,43.14-40.39-.16-12.84-17.39-51.51-28.82-96.66-14.1-55.16-45.36-99.2-71.44-108.28-1.95-.63-4,3.46-11.58,10.72-7,6.69-15.9,10.87-24.23,11.76l-4.84,8.29C1619,363.83,1612.33,379.15,1613.58,398.84Z"/><path class="cls-14" d="M1629.17,473.72c1.92,7.86-2.21-8.22,0,0,3.6,13.33,7.35,26.74,11.22,39.36l.14.45c.28,1.28.72,2.64,1.11,3.89,3.35,11.15,6.57,21.46,9.37,30.22,54.23-68.88,23.48-151.38,23.48-151.38Z"/><path class="cls-17" d="M1705.13,373.07s-33.93,124.92-65,132.58c-15.32,3.78-57.4-15.72-76.17-25.47,0,0-4.72-3.84,5.7-17.43,0,0,55.59,10.44,60,7.67,7.77-4.82-7.89-89.16,12.46-105.78S1693.78,343.7,1705.13,373.07Z"/><path class="cls-8" d="M1624.72,278.72s-4.38-7.24-16-8.41c0,0,34.28.72,35.71,11.26s1.8,12.2,1.8,12.2S1628.08,294.51,1624.72,278.72Z"/></g><path class="cls-18" d="M771.21,681.37l-.3,0,.26.08a6.11,6.11,0,0,1,.85.3,8.78,8.78,0,0,1,4.4,4.31,10,10,0,0,1,1,4c0,.16,0,.32,0,.48v24.3c0,.16,0,.32,0,.48a10,10,0,0,1-1,4,8.78,8.78,0,0,1-4.4,4.31,7.35,7.35,0,0,1-2,.54,6.15,6.15,0,0,1-1,.07H741.61c4,.53,7.15,4.26,7.36,8.82,0,.16,0,.32,0,.48v24.3c0,.16,0,.32,0,.48-.23,4.93-3.9,8.88-8.35,8.88h9.27c4.45,0,8.12,4,8.35,8.89,0,.16,0,.32,0,.48v24.3c0,.16,0,.32,0,.48a9.56,9.56,0,0,1-4.5,7.82h16.15a7.2,7.2,0,0,1,1.32.12,7.8,7.8,0,0,1,2.53.94,8.17,8.17,0,0,1,1.87,1.5,9.88,9.88,0,0,1,2.63,6.32c0,.16,0,.32,0,.48v24.3c0,.16,0,.32,0,.49a9.88,9.88,0,0,1-2.63,6.32,8,8,0,0,1-4.4,2.43,6.42,6.42,0,0,1-1.32.13H728.5c4.46,0,8.12,4,8.35,8.88,0,.16,0,.32,0,.48v24.3c0,.16,0,.32,0,.48-.23,4.93-3.89,8.89-8.35,8.89H678.75c-4.46,0-8.13-4-8.36-8.89,0-.16,0-.32,0-.48v-24.3c0-.16,0-.32,0-.48.23-4.93,3.9-8.88,8.36-8.88H637.36c-4.45,0-8.12-4-8.35-8.88,0-.17,0-.33,0-.49v-24.3c0-.16,0-.32,0-.48.23-4.93,3.9-8.88,8.35-8.88h16.15a9.48,9.48,0,0,1-4.47-7.4l0-.42c0-.16,0-.32,0-.48v-24.3c0-.16,0-.32,0-.48.23-4.93,3.9-8.89,8.35-8.89h9.27c-4.45,0-8.12-3.95-8.35-8.88,0-.16,0-.32,0-.48v-24.3c0-.16,0-.32,0-.48.21-4.56,3.37-8.29,7.36-8.82H638.18c-4.46,0-8.13-4-8.35-8.88,0-.16,0-.32,0-.48v-24.3c0-.16,0-.32,0-.48s0-.27,0-.4a9.14,9.14,0,0,1,6.49-8.26c-4-.54-7.12-4.26-7.33-8.81,0-.16,0-.32,0-.48v-24.3c0-.16,0-.32,0-.48.23-4.93,3.9-8.88,8.35-8.88h16.15a9.48,9.48,0,0,1-4.47-7.4l0-.42c0-.16,0-.32,0-.48v-24.3c0-.16,0-.32,0-.49.23-4.92,3.9-8.88,8.35-8.88H689c-4.45,0-8.12-4-8.35-8.88,0-.16,0-.32,0-.48v-24.3c0-.16,0-.32,0-.48.21-4.56,3.36-8.29,7.36-8.82H638.18c-4.46,0-8.13-3.95-8.35-8.88,0-.16,0-.32,0-.48v-24.3c0-.17,0-.33,0-.49.22-4.92,3.89-8.88,8.35-8.88H662.9a9.44,9.44,0,0,1-4.59-7.51l0-.38c0-.16,0-.32,0-.48v-24.3c0-.16,0-.32,0-.48.21-4.56,3.37-8.28,7.36-8.82H638.18c-4.46,0-8.13-4-8.35-8.88,0-.16,0-.32,0-.48v-24.3c0-.16,0-.32,0-.48.22-4.93,3.89-8.89,8.35-8.89H769.07a7.32,7.32,0,0,1,2.95.62,8.72,8.72,0,0,1,4.4,4.3,10,10,0,0,1,1,4c0,.16,0,.32,0,.48v24.3c0,.16,0,.32,0,.48a10,10,0,0,1-1,4,8.72,8.72,0,0,1-4.4,4.3,7,7,0,0,1-2,.55,7.66,7.66,0,0,1-1,.06H741.61c4,.54,7.15,4.26,7.36,8.82,0,.16,0,.32,0,.48v24.3c0,.16,0,.32,0,.48a9.5,9.5,0,0,1-4.62,7.89h24.72a7.48,7.48,0,0,1,2.95.61,8.17,8.17,0,0,1,.79.38,9,9,0,0,1,3.61,3.93,10,10,0,0,1,1,4c0,.16,0,.32,0,.49v24.3c0,.16,0,.32,0,.48a10,10,0,0,1-1,4,8.78,8.78,0,0,1-4.4,4.31,7.35,7.35,0,0,1-2,.54,6.15,6.15,0,0,1-1,.07H719.25c4,.53,7.15,4.26,7.36,8.82,0,.16,0,.32,0,.48v24.3c0,.16,0,.32,0,.48-.23,4.93-3.9,8.88-8.35,8.88h31.63c4.45,0,8.12,4,8.35,8.88,0,.17,0,.33,0,.49v24.3c0,.16,0,.32,0,.48a9.56,9.56,0,0,1-4.5,7.82h16.15a7.2,7.2,0,0,1,1.32.12,7.58,7.58,0,0,1,2.53.94,8.17,8.17,0,0,1,1.87,1.5,9.88,9.88,0,0,1,2.63,6.32c0,.16,0,.32,0,.48v24.3c0,.16,0,.32,0,.48a9.88,9.88,0,0,1-2.63,6.33,8,8,0,0,1-3.62,2.25A5.49,5.49,0,0,1,771.21,681.37Z"/><path class="cls-9" d="M750,411.36a3.88,3.88,0,0,0-4.71,2.78l-9.07,35.69H620.29L628.88,416a3.8,3.8,0,0,0-2.82-4.63,3.88,3.88,0,0,0-4.71,2.78L529.24,776.58h-.36V778L500.3,890.46a3.81,3.81,0,0,0,2.82,4.63,3.93,3.93,0,0,0,.95.12,3.87,3.87,0,0,0,3.76-2.9l28-110.12H651.77L624.25,890.46a3.89,3.89,0,0,0,3.77,4.75,3.89,3.89,0,0,0,3.77-2.9l44.59-175.47h1.72v-5.61h-.3l75-295.24A3.81,3.81,0,0,0,750,411.36Zm-15.2,44.07-15.18,59.75h-116l15.18-59.75ZM587.07,580.53l15.18-59.75h116L703,580.53Zm114.52,5.6-15.18,59.75H570.46l15.18-59.75Zm-48.4,190.45h-116L552.91,715v1.89H668.37Zm-99.34-65.35L569,651.49H685L669.8,711.23Z"/><circle class="cls-18" cx="551.64" cy="676.26" r="219.05" transform="translate(-316.62 588.14) rotate(-45)"/><circle class="cls-6" cx="532.53" cy="676.26" r="219.05" transform="translate(-322.22 574.63) rotate(-45)"/><path class="cls-7" d="M532.53,878.43a198.94,198.94,0,1,1,77.68-15.68A198.5,198.5,0,0,1,532.53,878.43Zm0-387.25a187.68,187.68,0,1,0,132.7,55A186.45,186.45,0,0,0,532.53,491.18Z"/><path class="cls-7" d="M560,736.78a33,33,0,0,0-.47-11.59,24,24,0,0,0-4.9-9.63,45.35,45.35,0,0,0-9.8-8.64,119.15,119.15,0,0,0-15.18-8.5,317.37,317.37,0,0,1-28-15.41,99.44,99.44,0,0,1-21-17.07,58.48,58.48,0,0,1-12.38-20.8q-3.92-11.52-2.13-26.59a60,60,0,0,1,7.46-23.28,55.38,55.38,0,0,1,15.46-17.18,69.16,69.16,0,0,1,22.15-10.55,92.55,92.55,0,0,1,27.64-3.19l3.91-32.89,26.47,3.14-4,33.36a82.82,82.82,0,0,1,24.92,10.59,62.59,62.59,0,0,1,27.89,40,83.29,83.29,0,0,1,1.09,28.27l-47.82-5.68q2.19-18.43-4.92-28.56t-20.84-11.75a35.78,35.78,0,0,0-13.07.56A24.19,24.19,0,0,0,523,606a22.75,22.75,0,0,0-6.14,7.92,33.1,33.1,0,0,0-2.92,10.42,30.46,30.46,0,0,0,.44,10.49,22.5,22.5,0,0,0,4.69,9.21,45.82,45.82,0,0,0,9.88,8.65,154.94,154.94,0,0,0,15.79,9.13q15.33,7.89,27.75,15.76a100.61,100.61,0,0,1,20.86,17.2,59.3,59.3,0,0,1,12.37,20.88q3.93,11.53,2.15,26.45a60.42,60.42,0,0,1-7.59,23.72,54.9,54.9,0,0,1-15.53,17A66.77,66.77,0,0,1,562.47,793,99.27,99.27,0,0,1,534.69,796l-3.63,30.59-26.31-3.12L508.36,793a111.28,111.28,0,0,1-25.85-9.14,70.88,70.88,0,0,1-21.18-16,63.28,63.28,0,0,1-13.28-23.79q-4.4-13.92-2.21-32.37l47.83,5.67q-1.29,10.92.9,18.58a30.82,30.82,0,0,0,6.8,12.66,30.05,30.05,0,0,0,10.94,7.53,51.58,51.58,0,0,0,13.11,3.35,42.76,42.76,0,0,0,13.89-.38,28.45,28.45,0,0,0,10.51-4.37,22.78,22.78,0,0,0,6.95-7.67A27.78,27.78,0,0,0,560,736.78Z"/><path class="cls-19" d="M1209.07,703.58l-43.87-3.77s2.54-27-5.18-63.13c-5.7-26.65-17-58.22-39-87.46-37.57-49.87-149.18-77.77-149.18-77.77V465l4-.44a16.11,16.11,0,0,0-4-1.9V447.4a53.9,53.9,0,0,1,12.69,1.24,87.43,87.43,0,0,0-12.69-2.28v-8c161.67,4.32,214.4,102,230.92,177.55C1213.32,664.26,1209.07,703.58,1209.07,703.58Z"/><path class="cls-20" d="M1401.08,689.39l-192,14.19c-1-29.57-8.71-60.16-16.18-83.34a392.46,392.46,0,0,0-14.68-39c-57.44-125.87-206.39-142.92-206.39-142.92l165.32-67.7c79.86,6,135.88,44.36,175.07,92.52C1389,557.48,1401.08,689.39,1401.08,689.39Z"/><path class="cls-21" d="M1401.08,689.39l-192,14.19-43.87-3.77s2.54-27-5.18-63.13a259.25,259.25,0,0,1,32.87-16.44q5.07-2.15,9.85-4.35c122.25-56.43,110.87-144.32,109.47-152.73C1389,557.48,1401.08,689.39,1401.08,689.39Z"/><path class="cls-19" d="M1386,704.17l-171.11-3.31.6-3.29c.09-.5,8.88-50.67-11.64-107.71a214.73,214.73,0,0,0-58.24-86.9c-33.35-30.37-77.93-53-132.49-67.18l-8.4-2.19,133.55-53.15h.52c1.44,0,35.84-.55,80.06,20.36a248.54,248.54,0,0,1,70.92,50.9c26.37,26.86,48.56,60.65,66,100.46,1.37,3.06,33.87,76,32.15,119.85v0Zm-164.41-8.87,159,3.07,1.56-26.62c.68-17.51-4.57-43.31-15.18-74.62-8.06-23.79-16.42-42.49-16.5-42.67-17.08-39.12-38.83-72.29-64.65-98.62a242.55,242.55,0,0,0-69.17-49.77A209.58,209.58,0,0,0,1151.53,387a44.32,44.32,0,0,0-21.41,2.86l-92.57,36.83a5.54,5.54,0,0,0,.37,10.42c45,14.49,82.49,35.23,111.64,61.81a220.39,220.39,0,0,1,59.72,89.31,243.32,243.32,0,0,1,13.85,77.29A204.16,204.16,0,0,1,1221.57,695.3Z"/><path class="cls-6" d="M1420.15,703.63,1419,716.5a4.92,4.92,0,0,1-1.09,2.7,5,5,0,0,1-2.49,1.65,4.93,4.93,0,0,1-.93.18,4.31,4.31,0,0,1-.88,0l-1.46-.12-1.27-.12-2.33-.2-2.46-.21-2.33-.2-2.63-.23-2.34-.2-5.17-.45-2.33-.2-5.56-.48-2.33-.21-7.14-.62-2.33-.2-12.17-1.06-2.33-.2-13-1.13-2.33-.2L1323,713.16l-2.33-.2-2.72-.23-17-1.47-2.33-.2-17.32-1.51-2.34-.2-12.85-1.11L1244,706.31l-35.41-3.06a5,5,0,0,1-4.5-4.42,3,3,0,0,1,0-.31,3.65,3.65,0,0,1,0-.66l1.11-12.88,0-.24a5,5,0,0,1,3.54-4.11,4.84,4.84,0,0,1,1.83-.18l53.14,4.61.19,0,2.33.2,1.87.16,15.18,1.32.27,0,2.33.2,14.72,1.28,1.84.15h0l.48,0,2.63.23.84.07,1.49.13,14.73,1.28,2.33.2,4.12.36,2.34.2,13,1.13,1.72.15.61,0,1.72.15,10.45.91,2.33.2.22,0,2.33.2,4.58.39,2.33.21,5.56.48,2.33.2,5.18.45,1.66.14.67.06,1.65.15,1,.08,2.33.2,2.25.2h.21l2.12.19h.21l1.27.12,2.33.2.92.08h0l.44,0,2.34.2,2.63.23,2.32.2,4.79.42,1.28.11,1.46.12a4.84,4.84,0,0,1,.86.16,4.54,4.54,0,0,1,.89.34,5,5,0,0,1,2.17,2.06A5,5,0,0,1,1420.15,703.63Z"/><path class="cls-7" d="M1317.9,712.73l-17-1.47-2.33-.2-17.32-1.51-2.34-.2-12.85-1.11L1244,706.31l-35.41-3.06-.51,0a4.61,4.61,0,0,1-4-4.37,3,3,0,0,1,0-.31,3.65,3.65,0,0,1,0-.66l1.11-12.88,0-.24a5,5,0,0,1,3.21-4.14,4,4,0,0,1,1.62-.2l.54.05,53.14,4.61.19,0,2.33.2,1.87.16,12.85,1.11,2.33.21.27,0,2.33.2,14.72,1.28,1.84.16h0l.48,0,2.63.23.84.07,0,.34h0C1307.43,695.92,1310.26,705.32,1317.9,712.73Z"/><rect class="cls-7" x="1392.3" y="696.36" width="2.34" height="22.88" transform="translate(66.72 -118.33) rotate(4.98)"/><rect class="cls-7" x="1384.41" y="695.67" width="2.34" height="22.88" transform="translate(66.29 -117.09) rotate(4.96)"/><rect class="cls-7" x="1374.95" y="694.85" width="2.34" height="22.88" transform="translate(66.53 -116.83) rotate(4.98)"/><rect class="cls-7" x="1360.45" y="693.6" width="2.34" height="22.88" transform="translate(66.34 -115.53) rotate(4.98)"/><rect class="cls-7" x="1345.11" y="692.27" width="2.34" height="22.88" transform="translate(66.2 -114.25) rotate(4.98)"/><rect class="cls-7" x="1321.6" y="690.23" width="2.34" height="22.88" transform="translate(65.58 -111.68) rotate(4.96)"/><rect class="cls-7" x="1299.59" y="688.32" width="2.34" height="22.88" transform="translate(65.34 -109.79) rotate(4.96)"/><rect class="cls-7" x="1279.94" y="686.61" width="2.34" height="22.88" transform="matrix(1, 0.09, -0.09, 1, 64.74, -107.53)"/><rect class="cls-7" x="1399.81" y="697.01" width="2.34" height="22.88" transform="translate(66.78 -118.93) rotate(4.98)"/><rect class="cls-7" x="1404.77" y="697.44" width="2.34" height="22.88" transform="translate(66.2 -118.32) rotate(4.94)"/><rect class="cls-7" x="1409.56" y="697.86" width="2.34" height="22.88" transform="translate(66.54 -119.2) rotate(4.96)"/><path class="cls-7" d="M1416.48,698.39l-2,22.64a4.31,4.31,0,0,1-.88,0l-1.46-.12,2-22.8,1.46.13A4.07,4.07,0,0,1,1416.48,698.39Z"/><path class="cls-7" d="M1419.54,700.78l-1.6,18.42a5,5,0,0,1-2.49,1.65l1.92-22.13A5.08,5.08,0,0,1,1419.54,700.78Z"/><path class="cls-6" d="M1405,679.69l-1.12,12.87a5,5,0,0,1-1.08,2.7c-.08.1-.17.18-.25.28a5.33,5.33,0,0,1-1.19.92,4.61,4.61,0,0,1-1,.45h0a5,5,0,0,1-.94.18,4.31,4.31,0,0,1-.88,0l-1.46-.13-1.27-.11h-.21l-2.12-.19-.21,0-2.25-.19-2.33-.2-1-.09-1.65-.14-.68-.06-1.65-.14-5.18-.45-.3,0-2-.18-.3,0-5.26-.46-2.33-.2-4.58-.4-2.33-.2-.22,0-2.33-.2-10.45-.91-1.72-.15-.61-.05-1.72-.15-13-1.13-2.34-.2-4.12-.36-2.33-.2-14.73-1.28-1.41-.12h0l-.92-.08-2.63-.23h-.09l-2.24-.2-14.72-1.27-2.33-.21-.27,0-2.33-.2-12.85-1.12-1.87-.16-2.33-.2-.67-.06-54.46-4.72-.33,0-14.94-1.3a5,5,0,0,1-4.5-4.41,1.53,1.53,0,0,1,0-.3,5.15,5.15,0,0,1,0-.68l1.12-12.87a1.94,1.94,0,0,1,0-.24,2,2,0,0,1,0-.24,5,5,0,0,1,5.33-4.06l3.49.3h0l.33,0,16.6,1.43,44.22,3.84,5.73.5,2.33.2,1.88.16,1.4.12,2.34.21,11.71,1,2.33.2,3.27.28h0l.19,0,2.14.18,16.57,1.44,3.11.27,2.33.2,21.18,1.84,2.33.2,13,1.13,2.33.2,12.17,1.06,2.34.2,1.52.13,2.33.2,3.27.29,2.33.2,5.56.48,1.91.17.42,0,1.91.17,2.63.23.64,0,2.33.21,2.64.22,2.33.21.45,0,1.46.12a5,5,0,0,1,.54.08l.33.08a3.63,3.63,0,0,1,.85.32h0a5,5,0,0,1,2.17,2.06A4.93,4.93,0,0,1,1405,679.69Z"/><path class="cls-7" d="M1302.79,688.79l-2.24-.2-14.72-1.27-2.33-.21-.27,0-2.33-.2-12.85-1.12-1.87-.16-2.33-.2-.67-.06-54.46-4.72-.33,0-14.94-1.3-.52,0a4.59,4.59,0,0,1-4-4.37,1.53,1.53,0,0,1,0-.3,5.15,5.15,0,0,1,0-.68l1.12-12.87a1.94,1.94,0,0,1,0-.24,2,2,0,0,1,0-.24,4.7,4.7,0,0,1,4.8-4.1l.53,0,3.49.3h0l.33,0,16.6,1.43,44.21,3.85,5.74.49,2.33.2,1.88.16,1.4.12,2.34.21,11.71,1,2.33.2,3.27.28h0l.19,0c0,.11,0,.22,0,.33h0c1,6.71,3.74,15.92,11.1,23.26h0Z"/><rect class="cls-7" x="1377.19" y="672.42" width="2.34" height="22.88" transform="translate(64.28 -116.6) rotate(4.96)"/><rect class="cls-7" x="1369.3" y="671.73" width="2.34" height="22.88" transform="translate(64.16 -115.87) rotate(4.96)"/><rect class="cls-7" x="1359.84" y="670.91" width="2.34" height="22.88" transform="translate(64.06 -115.07) rotate(4.96)"/><rect class="cls-7" x="1345.34" y="669.65" width="2.34" height="22.88" transform="translate(63.89 -113.81) rotate(4.96)"/><rect class="cls-7" x="1330.01" y="668.32" width="2.34" height="22.88" transform="matrix(1, 0.09, -0.09, 1, 63.75, -112.54)"/><rect class="cls-7" x="1306.5" y="666.28" width="2.34" height="22.88" transform="translate(63.43 -110.42) rotate(4.96)"/><rect class="cls-7" x="1284.49" y="664.37" width="2.34" height="22.88" transform="translate(63.18 -108.52) rotate(4.95)"/><rect class="cls-7" x="1264.83" y="662.67" width="2.34" height="22.88" transform="translate(63.35 -107.44) rotate(4.98)"/><rect class="cls-7" x="1384.7" y="673.07" width="2.34" height="22.88" transform="translate(64.3 -117.14) rotate(4.95)"/><rect class="cls-7" x="1389.67" y="673.5" width="2.34" height="22.88" transform="translate(64.4 -117.63) rotate(4.96)"/><rect class="cls-7" x="1394.46" y="673.91" width="2.34" height="22.88" transform="translate(64.78 -118.6) rotate(4.98)"/><path class="cls-7" d="M1401.38,674.45l-2,22.64a4.31,4.31,0,0,1-.88,0l-1.45-.13,2-22.79,1.46.12A5,5,0,0,1,1401.38,674.45Z"/><path class="cls-7" d="M1404.43,676.84l-1.6,18.42a5,5,0,0,1-2.49,1.65l1.92-22.13A5,5,0,0,1,1404.43,676.84Z"/><path class="cls-6" d="M1412.59,657.7l-1.11,12.87a5,5,0,0,1-1.09,2.7,5.05,5.05,0,0,1-2.49,1.66,4.77,4.77,0,0,1-.93.17,4.31,4.31,0,0,1-.88,0l-1.46-.12-1.27-.11-1.11-.1h0l-.88-.07-.33,0-2-.17-.47,0-.81-.07-1.51-.13-.82-.07-1.81-.16L1393,674l-1.68-.14-.65-.06-2.63-.22-1.91-.17-.42,0-1.91-.16-3.27-.29-2.28-.19h0l-2.29-.2-3.27-.28-2.33-.2-1.52-.14-2.34-.2-3.27-.28-2.33-.21-6.57-.56-2.33-.21-3.27-.28-2.33-.2-7.4-.64-2.33-.21-3.27-.28-2.34-.2-15.57-1.35-2.33-.21-2.72-.23-.56,0-2.33-.2-14.07-1.22-2.07-.18-.27,0-3.27-.29-2.33-.2-11.72-1-2.33-.2-1.4-.12-1.87-.16h0l-2.33-.21-6.22-.53L1201,657.32a5.11,5.11,0,0,1-1.75-.48,4.9,4.9,0,0,1-2.78-4.91l1.12-12.88a3.93,3.93,0,0,1,.06-.48,5,5,0,0,1,3.56-3.89,5.11,5.11,0,0,1,1.52-.18h0l.21,0,69,6,1.4.13,2.33.2,17.32,1.5,2.34.2,3.47.3,16.2,1.41,2.34.2,21.18,1.84,2.33.2,13,1.13,2.33.2,12.17,1.06,2.33.2,7.13.62,2.33.2,5.56.49,2.33.2,5.18.45,2.33.2,2.63.23,2.33.2,2.46.21,2.34.2,1.27.12,1.45.12a4.79,4.79,0,0,1,.87.16,4,4,0,0,1,.89.33,5,5,0,0,1,2.16,2.06A4.91,4.91,0,0,1,1412.59,657.7Z"/><path class="cls-7" d="M1310.35,666.8l-.56,0-2.33-.2-14.07-1.22-2.07-.18-.27,0-3.27-.29-2.33-.2-11.72-1-2.33-.2-1.4-.13-1.87-.16-2.33-.2-6.23-.54-59.09-5.12a4.07,4.07,0,0,1-1.54-.47h0a4.92,4.92,0,0,1-2.46-4.2,5,5,0,0,1,0-.67l1.12-12.88a3.93,3.93,0,0,1,.06-.48,5,5,0,0,1,3.22-3.92,3.94,3.94,0,0,1,1.57-.17l.29,0h0l69.2,6,1.4.13,2.33.2,17.32,1.5,2.34.2,3.47.3c.93,6.74,3.65,16.14,11.15,23.61Z"/><rect class="cls-7" x="1384.75" y="650.43" width="2.34" height="22.88" transform="translate(62.41 -117.34) rotate(4.96)"/><rect class="cls-7" x="1376.86" y="649.75" width="2.34" height="22.88" transform="translate(61.96 -116.05) rotate(4.93)"/><rect class="cls-7" x="1367.4" y="648.93" width="2.34" height="22.88" transform="translate(62.15 -115.74) rotate(4.95)"/><rect class="cls-7" x="1352.9" y="647.67" width="2.34" height="22.88" transform="translate(62.05 -114.59) rotate(4.96)"/><rect class="cls-7" x="1337.56" y="646.34" width="2.34" height="22.88" transform="translate(61.82 -113.18) rotate(4.96)"/><rect class="cls-7" x="1314.05" y="644.3" width="2.34" height="22.88" transform="translate(61.58 -111.2) rotate(4.96)"/><rect class="cls-7" x="1292.04" y="642.39" width="2.34" height="22.88" transform="matrix(1, 0.09, -0.09, 1, 61.7, -109.88)"/><rect class="cls-7" x="1272.39" y="640.69" width="2.34" height="22.88" transform="translate(61.12 -107.62) rotate(4.96)"/><rect class="cls-7" x="1392.26" y="651.08" width="2.34" height="22.88" transform="translate(62.47 -117.94) rotate(4.96)"/><rect class="cls-7" x="1397.22" y="651.51" width="2.34" height="22.88" transform="translate(62.52 -118.36) rotate(4.96)"/><rect class="cls-7" x="1402.01" y="651.93" width="2.34" height="22.88" transform="translate(62.9 -119.34) rotate(4.98)"/><path class="cls-7" d="M1408.93,652.46l-2,22.64a5.17,5.17,0,0,1-.88,0l-1.46-.13,2-22.8,1.45.13A6.08,6.08,0,0,1,1408.93,652.46Z"/><path class="cls-7" d="M1412,654.86l-1.6,18.41a5.05,5.05,0,0,1-2.49,1.66l1.92-22.13A5,5,0,0,1,1412,654.86Z"/><path class="cls-18" d="M1267.13,668.07c0,.08,0,.16,0,.24l-1.17,12.87a4.92,4.92,0,0,1-.1.67,5.13,5.13,0,0,1-1.95,3.07.9.9,0,0,1-.2.14,3.2,3.2,0,0,1-.51.29,4.11,4.11,0,0,1-2.11.39l-.52,0-14.94-1.36A5,5,0,0,1,1248,689a1.93,1.93,0,0,1,0,.24l-1.17,12.87a4.54,4.54,0,0,1-.11.66,5,5,0,0,1-2.79,3.56l-35.41-3.06-.51,0a4.61,4.61,0,0,1-4-4.37,3,3,0,0,1,0-.31,3.65,3.65,0,0,1,0-.66l1.11-12.88,0-.24a5,5,0,0,1,3.21-4.14l-14.94-1.3-.52,0a4.59,4.59,0,0,1-4-4.37,1.53,1.53,0,0,1,0-.3,5.15,5.15,0,0,1,0-.68l1.12-12.87a1.94,1.94,0,0,1,0-.24,2,2,0,0,1,0-.24,4.7,4.7,0,0,1,4.8-4.1l.53,0,3.49.3a4.92,4.92,0,0,1-2.46-4.2,5,5,0,0,1,0-.67l1.12-12.88a3.93,3.93,0,0,1,.06-.48,5,5,0,0,1,3.22-3.92l.34,0,57.81,5.25.21,0h0l.29,0a4.69,4.69,0,0,1,4,4.88c0,.16,0,.32,0,.48l-1.16,12.87a4.93,4.93,0,0,1-.11.67,5.08,5.08,0,0,1-2.18,3.23h0a4.91,4.91,0,0,1-.5.28h0a4.52,4.52,0,0,1-.47.18l3.49.32.53.05a4.11,4.11,0,0,1,2.56,1.23A5.16,5.16,0,0,1,1267.13,668.07Z"/><path class="cls-19" d="M1235.63,462.51c-28.19,0-43.8,16.86-43.8,45.05s29.19,45.22,57.37,45.22,44.71-17,44.71-45.22S1263.82,462.51,1235.63,462.51Z"/><path class="cls-8" d="M1498.11,861.47a34,34,0,1,0-34,34A34,34,0,0,0,1498.11,861.47Z"/><path class="cls-11" d="M1479.75,861.47a15.65,15.65,0,1,0-15.65,15.65A15.65,15.65,0,0,0,1479.75,861.47Z"/><path class="cls-8" d="M1226.9,861.47a34,34,0,1,0-34,34A34,34,0,0,0,1226.9,861.47Z"/><path class="cls-11" d="M1208.54,861.47a15.65,15.65,0,1,0-15.65,15.65A15.64,15.64,0,0,0,1208.54,861.47Z"/><path class="cls-14" d="M1531.83,465.48a5.09,5.09,0,0,0-7.21-.27l-43.53,40.39a5.2,5.2,0,0,0-1.39,2.2l-5.53,17.37-365.29,17.32a5.11,5.11,0,0,0-4.85,5.34l7.48,153.72a5.1,5.1,0,0,0,4.73,4.84l299.94,21.76h.37a5.1,5.1,0,0,0,4.86-3.55l61.37-192.85c0-.08,0-.16.08-.23l6.16-19.36,42.54-39.48A5.09,5.09,0,0,0,1531.83,465.48ZM1429.75,664.75l-33.54-1.29,14-56.61,38-.32Zm-42.57-1.63-37.76-1.45,12.77-54.41,38.92-.33Zm-49.61,49.1,9.8-41.78,37.64,1.44-10.66,43ZM1294,709.05l7.5-40.37,36.91,1.42-9.73,41.47Zm-48.07-3.49,5.87-38.78,40.77,1.56-7.45,40.07Zm-40.1-2.91,2.83-37.52,34.25,1.31-5.82,38.48Zm-48.64-3.52,2.33-35.89,40.3,1.55L1197,702Zm-39.91-89.8,36.9-.31-2.93,45.06-31.86-1.22Zm45.77-.39,41-.34L1200.45,656l-40.4-1.54Zm45.58-61-3.91,51.77-41.1.35,3.26-50.14Zm52.57-2.5L1253,599.34l-39.46.33,3.93-52.12Zm54.68-2.59-10.41,56-43.46.37,8.2-54.2Zm53-2.51-13.63,58.09-40.72.35,10.47-56.36Zm-108.16,67.74,43.16-.37-9.63,51.8L1253.09,658Zm-16.43,49.52-34.91-1.34,3.6-47.78,38.79-.33Zm68.6-50,40.29-.34-12.67,54-37.33-1.43Zm51.46-9.27L1378,539.94l40.22-1.9-14.88,60Zm-206.31-48-3.23,49.79-37.91.32-2.34-48Zm-38.16,111.34,30.85,1.18-2.31,35.59-26.85-2Zm293.12,56-29.61-2.14L1394,672.23l32.94,1.26Zm38.19-120-38.66.33,15-60.39,43.46-2.06Z"/><path class="cls-11" d="M1513.32,488.78a6.12,6.12,0,0,1-4.06-10.71l22.26-19.64a6.12,6.12,0,0,1,8.1,9.18l-22.26,19.64A6.07,6.07,0,0,1,1513.32,488.78Z"/><path class="cls-14" d="M1116.6,707.42a6.13,6.13,0,0,1-6.11-5.82L1103,547.88a6.12,6.12,0,0,1,12.23-.59L1122.72,701a6.12,6.12,0,0,1-5.82,6.41Z"/><path class="cls-14" d="M1465.13,859.12l-6.85-41.19a5.1,5.1,0,0,0,4.86-5.09V757.07a5.08,5.08,0,0,0-1.87-3.94l-41.49-34a5.1,5.1,0,1,0-6.47,7.89l39.63,32.47v48.35l-292.63,5.29-9.08-25.56a5.1,5.1,0,1,0-9.61,3.42l8.65,24.35-38.92,15.21a5.1,5.1,0,1,0,3.71,9.5l42.68-16.67,5.41-.1,28.17,40.44c1.41,2,4.06.66,3.94-2.05l-1.68-38.94,233.88-4.22,34.6,42.33C1463.27,862.31,1465.46,861.09,1465.13,859.12Z"/><path class="cls-10" d="M757,572.08a5.9,5.9,0,0,0,1,6.34l0,0c2.77,3.53,9,6.42,16.07,9,.9.34,1.71.65,2.41,1,.19.08.38.15.56.24s.28.13.42.18c6.76,3.07,5.17,4.81,17.69,11.44,14.27,7.55,21.65,5.33,23.4,3.64,1.47-1.44-4-6.12-10.17-11.4-.3-.26-.59-.52-.9-.77L805,589.65c-7.26-6.4-7.29-10.51-10.08-22.68-2.27-9.88-2.76-58.49-2.76-58.49l-21.52,3.21s5.43,37.05.46,44.67c-2.67,4.07-6.7,5.44-9.47,8.71l-.57.7A28,28,0,0,0,757,572.08Z"/><path class="cls-9" d="M757,572.08a5.9,5.9,0,0,0,1,6.34l0,0c3.1,3.42,9.23,6.33,16.08,9,.89.35,1.69.68,2.4,1,.19.08.38.15.56.24s.28.13.42.18c6.76,3.07,5.17,4.81,17.69,11.44,14.27,7.55,21.65,5.33,23.4,3.64,1.47-1.44-4-6.12-10.17-11.4a47.72,47.72,0,0,1-23.54-7.71c-9.09-6.05-16.82-15.13-23.18-19.77l-.57.7A28,28,0,0,0,757,572.08Z"/><path class="cls-10" d="M926.93,559.24c1.41,7.08,11.5,5.9,22.78,3.14s8.59.53,24.64-1.25,20.9-7.76,21.39-10.14c.44-2.12-7.49-2.87-16-3.85l-3.22-.38c-9.6-1.21-16.63-7.4-25.35-12.49-8.26-4.82-20.59-24.45-20.59-24.45l-22,1.74s11.54,17.54,16,25.16c2.63,4.49,2.49,10.42,2.16,15A28.35,28.35,0,0,0,926.93,559.24Z"/><path class="cls-9" d="M949.71,562.38c11.27-2.75,8.59.53,24.64-1.25s20.9-7.76,21.39-10.14c.44-2.12-7.49-2.87-16-3.85l-.08.17a45.24,45.24,0,0,1-23,7.14c-10.89.26-22.41-2.86-29.93-2.74a28.35,28.35,0,0,0,.17,7.53C928.34,566.32,938.43,565.14,949.71,562.38Z"/><path class="cls-8" d="M842.61,418.55,795.18,546.17a43.48,43.48,0,0,1-14.26-1.31c-6.43-1.85-13.8-6.72-13.8-6.72s11.77-122.53,33.33-148S842.61,418.55,842.61,418.55Z"/><path class="cls-11" d="M655,366.92s136.26-46.08,166.65-36.27S943.33,522,943.33,522s-2.06,2.74-7.68,4.85c-5.23,2-17.89,1.84-17.89,1.84s-82.34-70.58-92.15-91.17-13.72-40.19-23.52-38.23-126.46,48-152.93,20.58-19.55-63.11-19.55-63.11Z"/><path class="cls-8" d="M732.73,42c-5.89-3.35-13-3.72-17.89-3.42a8.26,8.26,0,0,1,3.77-1.79c-3.06-.46-9.89,2.58-9.89,2.58C666.13,23,659.44,85.69,660.33,100.26s1,31.33-20.26,44.4c-41.83,25.71-6.53,70.58-6.53,70.58.32.2,19.46,32.65,19.46,32.65-1.08-11.77,53.24-73.9,81.58-92.5,6.9-10.16,9.35-28.1,9.53-29.51-1.19,14.22-3.62,22.2-5.8,26.7C762.31,130.49,748.34,50.9,732.73,42Z"/><path class="cls-10" d="M732.9,156.31c.14.07-13.68,7.24-24.08,4.4-9.78-2.67-16.17-15.35-16-15.38,4.14-.82,5.34-6.51,5.25-31l1.87.37L731.39,121s-.72,9.91-.74,19.25C730.63,148,731.11,155.48,732.9,156.31Z"/><path class="cls-12" d="M731.39,121s-.72,9.91-.74,19.25c-17.62-.5-26.93-16.58-30.75-25.48Z"/><path class="cls-8" d="M696.65,111.3s-9.23-14.59-11.45-27.07c-1.58-8.9,2.95-41.92,36.13-37.16A45.13,45.13,0,0,1,740,54.13c7.2,4.87,17.6,15.37,6,44.18L743,108Z"/><path class="cls-10" d="M737.27,129.8s-41.68.69-41.71-25.28-5.43-43.37,21.18-44.9,31.8,8.36,33.92,17S748.12,129,737.27,129.8Z"/><path class="cls-8" d="M749.42,62.21c-6.43-7.8-11.3-6.1-14-3.76-9-13.46-37.48,6-37.48,6a49.59,49.59,0,0,1-16.23,29.3s7.6,4.69,25.12.19c13.78-3.55,23.79-23.17,27.43-31.37,2.48,2.21,7.71,7.3,9.27,12.29,2.08,6.61,3,20.22,7,19.76C750.48,94.63,759.08,73.92,749.42,62.21Z"/><path class="cls-11" d="M623.08,367.64c2.25,6.24,9.14,7.85,18.38,6.76,17.62-2.06,43.8-13.89,62.66-22.07,28.76-12.46,41.83-.75,51-8.69s-10.46-25.57,6.53-107.48c5.77-27.78-30.75-87.33-30.75-87.33s-3.29,17.46-38.1-3.5c-.69-.42-28.23,44.74-28.23,44.74S636,251.22,640.07,268.46C647.91,301.33,616.54,349.5,623.08,367.64Z"/><path class="cls-11" d="M730.88,148.83l21.54,88.36s2.68,4.77,6.88,11.56c9.86,15.95,28.12,43,39.8,45.79,5.77,1.36,18-3.44,31.6-10.29,25.65-13-5.43-79.56-5.43-79.56,2-11.76-42.74-3.7-42.74-3.7s34.44,51.72,28.34,52.16c-13.3.95-26.84-63.24-39.27-84.64C762.62,153.05,730.88,148.83,730.88,148.83Z"/><path class="cls-22" d="M728,114.06s.77,3.3,9,2.79c0,0,6.89-.43,6.68-4C743.67,112.8,737,110.22,728,114.06Z"/><path class="cls-23" d="M623.08,367.64c2.25,6.24,9.14,7.85,18.38,6.76,12.2-5.31,64.88-25.72,64.29-39.55-.87-20.48-10.13-21.13-3.59-46.41,5.25-20.29-43.43-58-51.2-66.22-14.6,27.69-15,29-10.89,46.24C647.91,301.33,616.54,349.5,623.08,367.64Z"/><path class="cls-23" d="M759.3,248.75c9.86,15.95,28.12,43,39.8,45.79,5.77,1.36,18-3.44,31.6-10.29-9.91,2.55-19.53,2.48-28.87,1.58-10.13-1-13.07-13.4-29.08-32C762.36,241.73,759.81,244.77,759.3,248.75Z"/><path class="cls-11" d="M692.78,145.33s-46,4.75-53.74,21.31-30.54,81.8-23.81,111.82,66.26-22.26,66.26-22.26Z"/><path class="cls-9" d="M912.43,328.53,888.8,191.47a8.78,8.78,0,0,0-10.12-7.14L629,227.39a8.77,8.77,0,0,0-7.14,10.11l23.63,137.06a8.77,8.77,0,0,0,10.11,7.14l249.73-43.06A8.77,8.77,0,0,0,912.43,328.53Z"/><rect class="cls-2" x="624.95" y="228.58" width="270.92" height="30.99" transform="translate(-30.41 132.76) rotate(-9.78)"/><rect class="cls-3" x="651.98" y="273.16" width="165.76" height="24.36" transform="translate(-37.8 129.02) rotate(-9.78)"/><path class="cls-3" d="M693,331.33a6.61,6.61,0,0,0-7.64-5.39l-20.29,3.5a6.62,6.62,0,0,0-5.4,7.64l3,17.5a6.61,6.61,0,0,0,7.64,5.39l20.29-3.5a6.62,6.62,0,0,0,5.4-7.64Z"/><path class="cls-24" d="M722.88,322.64,883.35,295a2.56,2.56,0,0,0,2.09-3l-.43-2.46a2.56,2.56,0,0,0-3-2.09L721.59,315.13a2.55,2.55,0,0,0-2.09,3l.42,2.46A2.56,2.56,0,0,0,722.88,322.64Z"/><path class="cls-24" d="M725.28,336.74l160.53-27.67a2.53,2.53,0,0,0,2.06-2.93l-.4-2.35a2.54,2.54,0,0,0-2.93-2.07L724,329.4a2.54,2.54,0,0,0-2.07,2.93l.41,2.35A2.52,2.52,0,0,0,725.28,336.74Z"/><path class="cls-24" d="M890.21,319.72l-.46-2.67a2.6,2.6,0,0,0-3-2.13L726.37,342.57a2.61,2.61,0,0,0-2.13,3l.46,2.67a2.61,2.61,0,0,0,3,2.13l160.36-27.65A2.61,2.61,0,0,0,890.21,319.72Z"/><path class="cls-10" d="M658.94,222.22s13.58-14.88,27.25-12.19,17,13.56,15.49,15.89-6.21,5.69-13.2,4.14S658.94,222.22,658.94,222.22Z"/><path class="cls-10" d="M782.53,201s13.58-14.88,27.25-12.19,17,13.56,15.49,15.89-6.22,5.69-13.2,4.14S782.53,201,782.53,201Z"/></g></g></svg>