<svg xmlns="http://www.w3.org/2000/svg" viewBox="0 0 648.12 169.93"><defs><style>.cls-1{fill:#1b1464;}.cls-2{fill:#fff;}</style></defs><title>Logo</title><g id="Layer_2" data-name="Layer 2"><g id="graphics"><path class="cls-1" d="M204.1,157.2a32.84,32.84,0,0,1-14-14.35q-4.81-9.43-4.81-22.78v-31q0-13.35,4.81-22.78a33.09,33.09,0,0,1,14-14.39q9.15-5,22-5a39,39,0,0,1,19,4.58A37.42,37.42,0,0,1,259,64.86a57.39,57.39,0,0,1,7.57,21.07h-22a28.61,28.61,0,0,0-3.84-9.55,18.47,18.47,0,0,0-6.29-6,16.39,16.39,0,0,0-8.26-2.1A19.87,19.87,0,0,0,216,70.68a15.81,15.81,0,0,0-6.4,7.14,26.37,26.37,0,0,0-2.21,11.29v31a26.09,26.09,0,0,0,2.21,11.25,15.81,15.81,0,0,0,6.4,7.1,19.87,19.87,0,0,0,10.17,2.45,17.09,17.09,0,0,0,8.38-2.06,17.55,17.55,0,0,0,6.28-6,28,28,0,0,0,3.73-9.63h22a58.34,58.34,0,0,1-7.65,21.07,37.47,37.47,0,0,1-13.81,13.31,38.81,38.81,0,0,1-19,4.58Q213.26,162.13,204.1,157.2Z"/><path class="cls-1" d="M286.94,156q-6.4-6.17-6.41-18.74,0-12,7.18-17.93t21.54-6h20.17l1.09,16.22H309.32c-3.2,0-5.61.63-7.21,1.9a6.9,6.9,0,0,0-2.41,5.78,6.43,6.43,0,0,0,3,5.86q3,1.9,9.15,1.9,8.53,0,12.69-1.94t4.15-6l1.63,11.71a11,11,0,0,1-4,7.38,23.31,23.31,0,0,1-8.85,4.54,40.69,40.69,0,0,1-11.21,1.51Q293.34,162.13,286.94,156Zm41.78-46.05q0-5.59-3.72-8.62t-10.55-3a28.13,28.13,0,0,0-8.93,1.47,26.25,26.25,0,0,0-7.84,4.11l-13.19-13a31.72,31.72,0,0,1,12.73-8.57,48.24,48.24,0,0,1,17.54-3.07q10.55,0,18,3.53A25.45,25.45,0,0,1,344.13,93a31.58,31.58,0,0,1,3.92,16.18V161H328.72Z"/><path class="cls-1" d="M379.13,158a25.5,25.5,0,0,1-9.28-11.91q-3.18-7.8-3.18-18.82V114.41q0-11.1,3.18-19a24.19,24.19,0,0,1,23.9-16.14,19.65,19.65,0,0,1,11.76,3.84A27.14,27.14,0,0,1,414.08,94l-1.63,17.85a15.9,15.9,0,0,0-1.39-7,9.9,9.9,0,0,0-4.08-4.38A13,13,0,0,0,400.5,99a11.25,11.25,0,0,0-9.27,4.08q-3.3,4.06-3.3,11.44v12.81q0,7.21,3.3,11.17t9.27,4A13.29,13.29,0,0,0,407,141a9.79,9.79,0,0,0,4.08-4.27,15,15,0,0,0,1.39-6.75l1.09,18.39a21.18,21.18,0,0,1-7.61,10.2,20.55,20.55,0,0,1-12.18,3.61A25.51,25.51,0,0,1,379.13,158ZM412.45,48.14h21.26V161H412.45Z"/><path class="cls-1" d="M457.19,156q-6.4-6.17-6.4-18.74,0-12,7.18-17.93t21.53-6h20.17l1.09,16.22H479.58q-4.81,0-7.22,1.9a6.9,6.9,0,0,0-2.41,5.78,6.43,6.43,0,0,0,3,5.86q3,1.9,9.16,1.9,8.53,0,12.68-1.94t4.16-6l1.63,11.71a11.07,11.07,0,0,1-4,7.38,23.24,23.24,0,0,1-8.85,4.54,40.69,40.69,0,0,1-11.21,1.51Q463.59,162.13,457.19,156ZM499,109.91q0-5.59-3.73-8.62t-10.55-3a28.18,28.18,0,0,0-8.93,1.47,26.07,26.07,0,0,0-7.83,4.11l-13.2-13a31.72,31.72,0,0,1,12.73-8.57A48.28,48.28,0,0,1,485,79.25q10.55,0,18,3.53A25.35,25.35,0,0,1,514.38,93a31.58,31.58,0,0,1,3.92,16.18V161H499Z"/><path class="cls-1" d="M560.51,134.35a6,6,0,0,0,1.67,4.54,6.64,6.64,0,0,0,4.77,1.59h3.57V161H559.66q-9.7,0-15.06-5.59t-5.35-15.75V48.14h21.26Z"/><path class="cls-1" d="M587,156q-6.4-6.17-6.4-18.74,0-12,7.18-17.93t21.53-6H629.5l1.08,16.22H609.4q-4.81,0-7.22,1.9a6.92,6.92,0,0,0-2.4,5.78,6.45,6.45,0,0,0,3,5.86q3,1.9,9.16,1.9,8.53,0,12.69-1.94c2.76-1.29,4.15-3.31,4.15-6l1.63,11.71a11,11,0,0,1-4,7.38,23.19,23.19,0,0,1-8.84,4.54,40.81,40.81,0,0,1-11.22,1.51Q593.41,162.13,587,156Zm41.79-46.05q0-5.59-3.73-8.62t-10.55-3a28.12,28.12,0,0,0-8.92,1.47,26.13,26.13,0,0,0-7.84,4.11l-13.19-13a31.68,31.68,0,0,1,12.72-8.57,48.28,48.28,0,0,1,17.54-3.07q10.54,0,18,3.53A25.35,25.35,0,0,1,644.2,93a31.58,31.58,0,0,1,3.92,16.18V161H628.8Z"/><rect class="cls-1" x="2.16" y="43.75" width="126.18" height="126.18"/><rect class="cls-1" x="55.94" y="-48.21" width="16.97" height="127.75" transform="translate(87.28 -46.57) rotate(96.5)"/><polygon class="cls-2" points="79.13 114.33 65.25 106.84 51.37 114.33 51.37 51.24 79.13 51.24 79.13 114.33"/></g></g></svg>